<?xml version="1.0" encoding="UTF-8" standalone="no"?>
<svg
   xmlns:dc="http://purl.org/dc/elements/1.1/"
   xmlns:cc="http://creativecommons.org/ns#"
   xmlns:rdf="http://www.w3.org/1999/02/22-rdf-syntax-ns#"
   xmlns:svg="http://www.w3.org/2000/svg"
   xmlns="http://www.w3.org/2000/svg"
   height="170.51053"
   width="89.508331"
   id="svg582"
   xml:space="preserve"
   viewBox="0 0 89.508332 170.51052"
   y="0px"
   x="0px"
   version="1.1"><metadata
   id="metadata588"><rdf:RDF><cc:Work
       rdf:about=""><dc:format>image/svg+xml</dc:format><dc:type
         rdf:resource="http://purl.org/dc/dcmitype/StillImage" /><dc:title></dc:title></cc:Work></rdf:RDF></metadata><defs
   id="defs586">
	
	

		
		
		
		
	
			
			
			
			
			
			
			
			
			
			
			
			
			
			
			
			
			
			
			
			
			
			
			
			
			
			
			
			
			
			
			
			
			
			
			
			
			
			
			
			
			
			
			
			
			
			
			
			
			
			
			
			
			
			
			
			
			
			
			
			
			
			
			
			
			
			
			
			
			
			
			
			
			
			
			
			
			
			
			
			
			
			
			
			
			
			
			
			
			
			
		
			
			
			
			
			
			
			
			
			
			
			
			
			
			
			
			
			
			
		</defs>
<style
   id="style2"
   type="text/css">
	.st0{fill:#F8E3EE;}
	.st1{fill:#FFFFFF;}
	.st2{fill:#F5E775;}
	.st3{fill:#78CDD1;}
	.st4{fill:#A7A9AC;}
	.st5{fill:#B42848;}
	.st6{fill:#D1A774;}
	.st7{fill:#84C98B;}
	.st8{fill:#58595B;}
	.st9{fill:none;stroke:#000000;stroke-width:2.8346;stroke-linecap:round;stroke-linejoin:round;stroke-miterlimit:10;}
</style>
<g
   transform="translate(556.64063,-512.75488)"
   id="g1596"><rect
     style="fill:#78cdd1"
     id="rect276"
     height="119.3"
     width="21.799999"
     class="st3"
     y="561.2655"
     x="-554.63654" /><polygon
     style="fill:#d1a774"
     id="polygon278"
     points="120.9,547.6 104.6,544.6 111.2,534.7 "
     class="st6"
     transform="translate(-593.83655,15.765572)" /><polygon
     style="fill:#b42848"
     id="polygon280"
     points="110.8,534.1 64.6,505.4 57.1,515.8 104.6,545.3 "
     class="st5"
     transform="translate(-593.83655,15.765572)" /><polygon
     style="fill:#f5e775"
     id="polygon282"
     points="56.2,500.5 64,505.4 57.8,516.2 50.7,511 "
     class="st2"
     transform="translate(-593.83655,15.765572)" /><polygon
     style="fill:#a7a9ac"
     id="polygon284"
     points="78.8,648 80.7,646.9 98.9,593.8 118.5,648.7 120,642.6 108,589.2 99.1,592.2 91.1,589.2 80.1,631.8 "
     class="st4"
     transform="translate(-593.83655,15.765572)" /><polygon
     style="fill:#a7a9ac"
     id="polygon286"
     points="103.5,571.1 102.9,558.3 95.7,558.3 96.1,571.1 "
     class="st4"
     transform="translate(-593.83655,15.765572)" /><circle
     style="fill:#84c98b"
     id="circle288"
     r="9.6999998"
     cy="597.46552"
     cx="-494.43655"
     class="st7" /><polygon
     style="fill:#ffffff"
     id="polygon404"
     points="46.4,509.2 49.9,511.2 56.7,500.7 52.9,498.2 47.6,499.1 44.8,504.2 "
     class="st1"
     transform="translate(-593.83655,15.765572)" /><g
     id="g477"
     transform="translate(-594.24063,16.365408)">
				<path
   id="path471"
   d="M 61,543.4 H 39.7 c -1.2,0 -2.1,1 -2.1,2.1 v 119.3 c 0,1.2 1,2.1 2.1,2.1 H 61 c 1.2,0 2.1,-1 2.1,-2.1 V 545.5 c 0.1,-1.2 -0.9,-2.1 -2.1,-2.1 z M 41.8,662.7 V 547.6 h 17 v 4.3 H 48.2 c -1.2,0 -2.1,1 -2.1,2.1 0,1.2 1,2.1 2.1,2.1 h 10.7 v 4.3 h -6.4 c -1.2,0 -2.1,1 -2.1,2.1 0,1.2 1,2.1 2.1,2.1 h 6.4 v 4.3 h -6.4 c -1.2,0 -2.1,1 -2.1,2.1 0,1.2 1,2.1 2.1,2.1 h 6.4 v 4.3 h -6.4 c -1.2,0 -2.1,1 -2.1,2.1 0,1.2 1,2.1 2.1,2.1 h 6.4 v 4.3 H 48.2 c -1.2,0 -2.1,1 -2.1,2.1 0,1.1 1,2.1 2.1,2.1 h 10.7 v 4.3 h -6.4 c -1.2,0 -2.1,1 -2.1,2.1 0,1.2 1,2.1 2.1,2.1 h 6.4 v 4.3 h -6.4 c -1.2,0 -2.1,1 -2.1,2.1 0,1.2 1,2.1 2.1,2.1 h 6.4 v 4.3 h -6.4 c -1.2,0 -2.1,1 -2.1,2.1 0,1.2 1,2.1 2.1,2.1 h 6.4 v 4.3 H 48.2 c -1.2,0 -2.1,1 -2.1,2.1 0,1.2 1,2.1 2.1,2.1 h 10.7 v 4.3 h -6.4 c -1.2,0 -2.1,1 -2.1,2.1 0,1.2 1,2.1 2.1,2.1 h 6.4 v 4.3 h -6.4 c -1.2,0 -2.1,1 -2.1,2.1 0,1.2 1,2.1 2.1,2.1 h 6.4 v 4.3 h -6.4 c -1.2,0 -2.1,1 -2.1,2.1 0,1.2 1,2.1 2.1,2.1 h 6.4 v 4.3 H 48.2 c -1.2,0 -2.1,1 -2.1,2.1 0,1.2 1,2.1 2.1,2.1 h 10.7 v 4.3 H 41.8 Z" />
				<path
   id="path473"
   d="m 47.4,512.3 1.8,1.1 c 0,0 0,0 0,0 l 7.2,4.5 c 0,0 0,0 0,0 0,0 0,0 0,0 l 47.1,29.2 c 0,0 0.1,0 0.1,0 0.1,0.1 0.2,0.1 0.3,0.1 0.1,0 0.1,0.1 0.2,0.1 0,0 0.1,0 0.1,0 l 17.9,3.6 c 0.1,0 0.3,0 0.4,0 0.7,0 1.4,-0.4 1.8,-1 0.5,-0.8 0.4,-1.7 -0.1,-2.4 l -11.1,-14.4 c -0.1,-0.2 -0.3,-0.3 -0.5,-0.5 0,0 0,0 -0.1,-0.1 L 65.4,503.3 c 0,0 0,0 0,0 0,0 0,0 0,0 l -7.2,-4.5 c 0,0 0,0 0,0 l -1.8,-1.1 c -1.9,-1.2 -4.2,-1.6 -6.4,-1.1 -2.2,0.5 -4.1,1.9 -5.3,3.8 -1.2,1.9 -1.6,4.2 -1.1,6.4 0.5,2.4 1.8,4.3 3.8,5.5 z m 10.3,-8.7 3.6,2.2 -4.5,7.2 -3.6,-2.2 3.2,-5.1 z m 50.4,40.2 3.5,-5.6 5.8,7.5 z m -4.2,-1.5 -43.4,-27 4.5,-7.2 43.4,27 z M 48.3,502.8 c 0.6,-1 1.5,-1.6 2.7,-1.9 0.3,-0.1 0.7,-0.1 1,-0.1 0.8,0 1.6,0.2 2.2,0.6 l -4.5,7.2 c -2.1,-1.2 -2.7,-3.8 -1.4,-5.8 z" />
				<path
   id="path475"
   d="m 126.7,616.7 c -0.7,-0.9 -2,-1.1 -3,-0.4 -2,1.5 -4.1,2.7 -6.2,3.8 l -7.3,-31.5 c 1.2,-2 2,-4.3 2,-6.8 0,-4.7 -2.6,-8.8 -6.4,-11.1 v -12.4 c 0,-1.2 -1,-2.1 -2.1,-2.1 h -8.5 c -1.2,0 -2.1,1 -2.1,2.1 v 12.4 c -3.8,2.2 -6.4,6.3 -6.4,11.1 0,2.5 0.7,4.8 2,6.8 l -7.3,31.5 c -2.2,-1.1 -4.2,-2.3 -6.2,-3.8 -0.9,-0.7 -2.3,-0.5 -3,0.4 -0.7,0.9 -0.5,2.3 0.4,3 2.5,1.8 5.1,3.4 7.8,4.7 L 76,643 c 0,0.2 -0.1,0.3 -0.1,0.5 v 12.8 c 0,1 0.8,1.9 1.8,2.1 0.1,0 0.2,0 0.3,0 0.9,0 1.7,-0.6 2,-1.5 l 9.8,-29.4 c 3.1,0.7 6.3,1 9.5,1 3.2,0 6.4,-0.4 9.5,-1 l 9.8,29.4 c 0.3,0.9 1.1,1.5 2,1.5 0.1,0 0.2,0 0.3,0 1,-0.2 1.8,-1.1 1.8,-2.1 v -12.8 c 0,-0.2 0,-0.3 -0.1,-0.5 l -4.3,-18.7 c 2.7,-1.3 5.3,-2.8 7.8,-4.7 1.1,-0.7 1.3,-2 0.6,-2.9 z m -20,-24.5 6.8,29.6 c -0.6,0.2 -1.2,0.5 -1.8,0.6 l -9.4,-28.3 c 1.5,-0.3 3,-1 4.4,-1.9 z m -9.5,-31.8 h 4.3 v 8.7 c -0.7,-0.1 -1.4,-0.2 -2.1,-0.2 -0.7,0 -1.4,0.1 -2.1,0.2 v -8.7 z m 2.2,12.8 c 4.7,0 8.5,3.8 8.5,8.5 0,4.7 -3.8,8.5 -8.5,8.5 -4.7,0 -8.5,-3.8 -8.5,-8.5 0,-4.7 3.8,-8.5 8.5,-8.5 z m -7.3,19 c 1.3,0.9 2.8,1.6 4.4,2 l -9.4,28.3 c -0.6,-0.2 -1.2,-0.4 -1.8,-0.6 z m -11.5,49.6 3.7,-15.9 c 0.5,0.2 1,0.3 1.5,0.5 z m 18.8,-17.5 c -2.8,0 -5.5,-0.3 -8.1,-0.8 l 8.1,-24.4 8.1,24.4 c -2.6,0.5 -5.4,0.8 -8.1,0.8 z m 18.7,17.5 -5.1,-15.4 c 0.5,-0.2 1,-0.3 1.5,-0.5 z" />
			</g></g><g
   transform="translate(448.10009,-5.6034021)"
   id="g565">
			</g><g
   transform="translate(448.10009,-5.6034021)"
   id="g567">
			</g><g
   transform="translate(448.10009,-5.6034021)"
   id="g569">
			</g><g
   transform="translate(448.10009,-5.6034021)"
   id="g571">
			</g><g
   transform="translate(448.10009,-5.6034021)"
   id="g573">
			</g><g
   transform="translate(448.10009,-5.6034021)"
   id="g575">
			</g>

</svg>