<?xml version="1.0" encoding="UTF-8" standalone="no"?>
<svg
   xmlns:dc="http://purl.org/dc/elements/1.1/"
   xmlns:cc="http://creativecommons.org/ns#"
   xmlns:rdf="http://www.w3.org/1999/02/22-rdf-syntax-ns#"
   xmlns:svg="http://www.w3.org/2000/svg"
   xmlns="http://www.w3.org/2000/svg"
   height="174.82094"
   width="89.426102"
   id="svg582"
   xml:space="preserve"
   viewBox="0 0 89.426102 174.82093"
   y="0px"
   x="0px"
   version="1.1"><metadata
   id="metadata588"><rdf:RDF><cc:Work
       rdf:about=""><dc:format>image/svg+xml</dc:format><dc:type
         rdf:resource="http://purl.org/dc/dcmitype/StillImage" /><dc:title></dc:title></cc:Work></rdf:RDF></metadata><defs
   id="defs586">
	
	

		
		
		
		
	
			
			
			
			
			
			
			
			
			
			
			
			
			
			
			
			
			
			
			
			
			
			
			
			
			
			
			
			
			
			
			
			
			
			
			
			
			
			
			
			
			
			
			
			
			
			
			
			
			
			
			
			
			
			
			
			
			
			
			
			
			
			
			
			
			
			
			
			
			
			
			
			
			
			
			
			
			
			
			
			
			
			
			
			
			
			
			
			
			
			
		
			
			
			
			
			
			
			
			
			
			
			
			
			
			
			
			
			
			
		</defs>
<style
   id="style2"
   type="text/css">
	.st0{fill:#F8E3EE;}
	.st1{fill:#FFFFFF;}
	.st2{fill:#F5E775;}
	.st3{fill:#78CDD1;}
	.st4{fill:#A7A9AC;}
	.st5{fill:#B42848;}
	.st6{fill:#D1A774;}
	.st7{fill:#84C98B;}
	.st8{fill:#58595B;}
	.st9{fill:none;stroke:#000000;stroke-width:2.8346;stroke-linecap:round;stroke-linejoin:round;stroke-miterlimit:10;}
</style>
<g
   transform="translate(236.92646,-313.69803)"
   id="g1605"><path
     style="fill:#78cdd1"
     id="path366"
     d="m -192.41304,362.81748 c 0,0 38.4,3 38.4,39 0,36 -38.6,38.8 -38.6,38.8 0,0 -38.3,-6.2 -38.3,-37.9 0,-31.7 32,-39.9 38.5,-39.9 z"
     class="st3" /><polygon
     style="fill:#d1a774"
     id="polygon368"
     points="607.1,387.1 593.5,384.1 573.9,385.1 571.7,389.2 572.2,393 562.7,392.8 547.9,379.6 543.7,379.6 541.3,383.2 543.2,387.7 563,405.6 601.2,405.9 618.4,418.7 622.7,401.4 "
     class="st6"
     transform="translate(-772.51304,68.31748)" /><polygon
     style="fill:#f5e775"
     id="polygon370"
     points="553.3,279.7 566.8,282.7 586.5,281.7 588.6,277.5 588.1,273.8 597.7,274 612.4,287.2 616.7,287.2 619.1,283.6 617.2,279 597.4,261.1 559.2,260.8 541.9,248 537.7,265.4 "
     class="st2"
     transform="translate(-772.51304,68.31748)" /><g
     id="g555"
     transform="translate(-772.28841,67.618963)">
				<path
   id="path549"
   d="m 624.2,400.2 -8.2,-8.5 c -0.9,-1.1 -8.2,-9.2 -24.3,-9.2 h -15.9 c -1.7,0 -3.4,0.7 -4.6,2 -1.2,1.3 -1.8,3 -1.7,4.7 0,0.6 0.2,1.2 0.4,1.8 h -6 l -13.4,-11.9 c -1.2,-1.2 -2.9,-1.9 -4.7,-1.9 -1.8,0 -3.4,0.8 -4.6,2.1 -2.3,2.5 -2.1,6.5 0.4,9 l 19.9,19.2 c 0.4,0.4 0.9,0.6 1.5,0.6 h 37.6 l 16.5,12.4 c 0.4,0.3 0.8,0.4 1.3,0.4 0.6,0 1.3,-0.3 1.7,-0.9 0.7,-0.9 0.5,-2.3 -0.4,-3 l -17,-12.8 c -0.4,-0.3 -0.8,-0.4 -1.3,-0.4 h -37.5 l -19.3,-18.5 c -0.9,-0.9 -1,-2.3 -0.3,-3.1 0.4,-0.4 0.9,-0.7 1.5,-0.7 0.6,0 1.1,0.2 1.7,0.7 l 14.1,12.6 c 0.4,0.3 0.9,0.5 1.4,0.5 h 13 4 8.8 c 1.2,0 2.1,-1 2.1,-2.1 0,-1.2 -1,-2.1 -2.1,-2.1 h -8.8 -4 c -1.2,0 -2.3,-0.9 -2.4,-2 0,-0.6 0.2,-1.2 0.6,-1.6 0.4,-0.4 1,-0.7 1.5,-0.7 h 15.9 c 14.7,0 20.8,7.4 21.1,7.7 0,0.1 0.1,0.1 0.1,0.2 l 8.3,8.5 c 0.4,0.4 1,0.6 1.5,0.6 0.5,0 1.1,-0.2 1.5,-0.6 0.9,-0.8 0.9,-2.2 0.1,-3 z" />
				<path
   id="path551"
   d="m 568.5,284.5 h 15.9 c 1.7,0 3.4,-0.7 4.6,-2 1.2,-1.3 1.8,-3 1.7,-4.7 0,-0.6 -0.2,-1.2 -0.4,-1.8 h 6 l 13.4,11.9 c 1.2,1.2 2.8,1.9 4.5,1.9 0.1,0 0.1,0 0.2,0 1.8,0 3.4,-0.8 4.6,-2.1 2.3,-2.5 2.1,-6.5 -0.4,-9 l -19.9,-19.2 c -0.4,-0.4 -0.9,-0.6 -1.5,-0.6 H 559.6 L 543,246.5 c -0.9,-0.7 -2.3,-0.5 -3,0.4 -0.7,0.9 -0.5,2.3 0.4,3 l 17,12.8 c 0.4,0.3 0.8,0.4 1.3,0.4 h 37.5 l 19.3,18.5 c 0.9,0.9 1,2.3 0.3,3.1 -0.4,0.4 -0.9,0.7 -1.5,0.7 -0.6,0 -1.1,-0.2 -1.7,-0.7 l -14.1,-12.6 c -0.4,-0.3 -0.9,-0.5 -1.4,-0.5 h -13 -4 -8.8 c -1.2,0 -2.1,1 -2.1,2.1 0,1.1 1,2.1 2.1,2.1 h 8.8 4 c 1.2,0 2.3,0.9 2.4,2 0,0.6 -0.2,1.2 -0.6,1.6 -0.4,0.4 -1,0.7 -1.5,0.7 h -15.9 c -14.7,0 -20.8,-7.4 -21.1,-7.7 0,-0.1 -0.1,-0.1 -0.1,-0.2 l -8.3,-8.5 c -0.8,-0.8 -2.2,-0.9 -3,0 -0.8,0.8 -0.9,2.2 0,3 l 8.2,8.5 c 0.8,1.1 8.2,9.3 24.3,9.3 z" />
				<path
   id="path553"
   d="m 580.1,293 c -22.3,0 -40.5,18.2 -40.5,40.5 0,22.3 18.2,40.5 40.5,40.5 22.3,0 40.5,-18.2 40.5,-40.5 0,-22.3 -18.2,-40.5 -40.5,-40.5 z m 30.7,21.3 h -10 c -1.8,-5.9 -4.4,-10.9 -7.6,-14.6 7.3,2.9 13.5,8 17.6,14.6 z m 2.3,34.1 h -11.2 c 0.9,-4 1.4,-8.3 1.6,-12.8 h 12.7 c -0.2,4.5 -1.3,8.9 -3.1,12.8 z m -69.2,-12.8 h 12.7 c 0.1,4.5 0.7,8.8 1.6,12.8 H 547 c -1.7,-3.9 -2.8,-8.3 -3.1,-12.8 z m 3.2,-17 h 11.2 c -0.9,4 -1.4,8.3 -1.6,12.8 H 544 c 0.2,-4.6 1.3,-8.9 3.1,-12.8 z m 35.1,-4.3 v -16.8 c 5.8,1.3 11,7.7 14,16.8 z m 15.3,4.3 c 1,4 1.6,8.3 1.7,12.8 h -17 V 318.6 Z M 578,297.5 v 16.8 h -14 c 3,-9.1 8.1,-15.5 14,-16.8 z m 0,21.1 v 12.8 h -17 c 0.1,-4.5 0.8,-8.8 1.7,-12.8 z m -17.1,17 h 17 v 12.8 h -15.3 c -0.9,-4 -1.5,-8.3 -1.7,-12.8 z m 17.1,17.1 v 16.8 c -5.8,-1.3 -11,-7.7 -14,-16.8 z m 4.2,16.8 v -16.8 h 14 c -3,9 -8.2,15.5 -14,16.8 z m 0,-21.1 v -12.8 h 17 c -0.1,4.5 -0.8,8.8 -1.7,12.8 z m 21.3,-17.1 c -0.1,-4.5 -0.7,-8.8 -1.6,-12.8 h 11.2 c 1.8,3.9 2.9,8.2 3.2,12.8 z M 567,299.7 c -3.2,3.7 -5.8,8.7 -7.6,14.6 h -10 c 4.1,-6.6 10.3,-11.7 17.6,-14.6 z m -17.6,53 h 10 c 1.8,5.9 4.4,10.9 7.6,14.6 -7.3,-2.9 -13.5,-8.1 -17.6,-14.6 z m 43.8,14.5 c 3.2,-3.7 5.8,-8.7 7.6,-14.6 h 10 c -4.1,6.6 -10.3,11.8 -17.6,14.6 z" />
			</g></g><g
   transform="translate(769.15357,-1.4268232)"
   id="g565">
			</g><g
   transform="translate(769.15357,-1.4268232)"
   id="g567">
			</g><g
   transform="translate(769.15357,-1.4268232)"
   id="g569">
			</g><g
   transform="translate(769.15357,-1.4268232)"
   id="g571">
			</g><g
   transform="translate(769.15357,-1.4268232)"
   id="g573">
			</g><g
   transform="translate(769.15357,-1.4268232)"
   id="g575">
			</g>

</svg>