<?xml version="1.0" encoding="UTF-8" standalone="no"?>
<svg
   xmlns:dc="http://purl.org/dc/elements/1.1/"
   xmlns:cc="http://creativecommons.org/ns#"
   xmlns:rdf="http://www.w3.org/1999/02/22-rdf-syntax-ns#"
   xmlns:svg="http://www.w3.org/2000/svg"
   xmlns="http://www.w3.org/2000/svg"
   height="171.89999"
   width="89.599998"
   id="svg582"
   xml:space="preserve"
   viewBox="0 0 89.599999 171.89999"
   y="0px"
   x="0px"
   version="1.1"><metadata
   id="metadata588"><rdf:RDF><cc:Work
       rdf:about=""><dc:format>image/svg+xml</dc:format><dc:type
         rdf:resource="http://purl.org/dc/dcmitype/StillImage" /><dc:title></dc:title></cc:Work></rdf:RDF></metadata><defs
   id="defs586">
	
	

		
		
		
		
	
			
			
			
			
			
			
			
			
			
			
			
			
			
			
			
			
			
			
			
			
			
			
			
			
			
			
			
			
			
			
			
			
			
			
			
			
			
			
			
			
			
			
			
			
			
			
			
			
			
			
			
			
			
			
			
			
			
			
			
			
			
			
			
			
			
			
			
			
			
			
			
			
			
			
			
			
			
			
			
			
			
			
			
			
			
			
			
			
			
			
		
			
			
			
			
			
			
			
			
			
			
			
			
			
			
			
			
			
			
		</defs>
<style
   id="style2"
   type="text/css">
	.st0{fill:#F8E3EE;}
	.st1{fill:#FFFFFF;}
	.st2{fill:#F5E775;}
	.st3{fill:#78CDD1;}
	.st4{fill:#A7A9AC;}
	.st5{fill:#B42848;}
	.st6{fill:#D1A774;}
	.st7{fill:#84C98B;}
	.st8{fill:#58595B;}
	.st9{fill:none;stroke:#000000;stroke-width:2.8346;stroke-linecap:round;stroke-linejoin:round;stroke-miterlimit:10;}
</style>
<g
   transform="translate(330.90517,-285.65033)"
   id="g1582"><g
     id="g1480"
     transform="translate(-4.4,-1.9234177)"><polygon
       transform="translate(-531.60517,38.350326)"
       class="st6"
       points="230.7,416.6 226.4,412.5 227,383.8 229.6,379.3 233.9,376.6 256.1,376.6 256.7,418.7 236.7,419.3 "
       id="polygon338"
       style="fill:#d1a774" /><polygon
       transform="translate(-531.60517,38.350326)"
       class="st2"
       points="284.9,377 288.6,379.6 290.1,383.6 291.4,409.1 289.3,415.3 285.2,418.2 279.6,418.7 256.7,418.7 256.5,376.1 256.9,376.4 "
       id="polygon340"
       style="fill:#f5e775" /><polygon
       transform="translate(-531.60517,38.350326)"
       class="st3"
       points="206.9,418.7 229.2,419.3 218.5,410.2 "
       id="polygon342"
       style="fill:#78cdd1" /><polygon
       transform="translate(-531.60517,38.350326)"
       class="st7"
       points="223.6,372.1 227,363.7 230.7,344.6 230.2,333.2 206.3,332.6 206.3,342.6 208.7,357.8 211.9,369.1 214.4,373.6 218.5,376.1 "
       id="polygon344"
       style="fill:#84c98b" /><polygon
       transform="translate(-531.60517,38.350326)"
       class="st5"
       points="241.1,251.8 248.5,257.3 256.9,251.8 269.3,250.5 278.6,256.2 285.2,265 286.7,275.3 283.2,287.7 267.9,301.8 248.5,319.9 213.4,285.1 210.4,275.5 211.9,264.6 219.6,255.8 229.2,251.3 "
       id="polygon346"
       style="fill:#b42848" /><polygon
       transform="translate(-531.60517,38.350326)"
       class="st5"
       points="275.6,328.9 282.4,330.4 286.4,337.7 286,342.8 270.4,359.9 254.7,344.4 252.9,338.3 256.5,330 264.7,328.9 269.9,331.5 "
       id="polygon348"
       style="fill:#b42848" /></g><g
     id="g523"
     transform="translate(-534.50517,36.750326)">
				<path
   id="path509"
   d="m 282.4,374 h -46.9 c -5.9,0 -10.7,4.8 -10.7,10.7 v 25.6 c 0,0.6 0.1,1.2 0.2,1.8 l -4.4,-3 v -31.3 c 9.3,-4.2 12.8,-35.5 12.8,-57.1 0,-1.2 -1,-2.1 -2.1,-2.1 h -25.6 c -1.2,0 -2.1,1 -2.1,2.1 0,21.6 3.5,52.9 12.8,57.1 V 409 l -11.8,7.9 c -0.8,0.5 -1.1,1.5 -0.9,2.4 0.3,0.9 1.1,1.5 2,1.5 h 25.6 c 0.5,0 0.9,-0.2 1.3,-0.4 0.9,0.3 1.9,0.4 3,0.4 h 46.9 c 5.9,0 10.7,-4.8 10.7,-10.7 V 384.5 C 293.1,378.7 288.3,374 282.4,374 Z m -53.2,-51.2 c 0,3 -0.1,5.8 -0.2,8.5 h -20.9 c -0.1,-2.7 -0.2,-5.6 -0.2,-8.5 z m -20.9,12.8 h 20.4 c -1.6,25.2 -7,38.4 -10.2,38.4 -3.2,0 -8.6,-13.2 -10.2,-38.4 z m 4.5,81 5.7,-3.8 5.7,3.8 z m 16.4,-6.4 v -25.6 c 0,-3.5 2.9,-6.4 6.4,-6.4 h 19.2 v 38.4 h -19.2 c -3.6,0 -6.4,-2.9 -6.4,-6.4 z m 59.6,0 c 0,3.5 -2.9,6.4 -6.4,6.4 H 259 v -38.4 h 23.4 c 3.5,0 6.4,2.9 6.4,6.4 z" />
				<path
   id="path511"
   d="m 278.2,382.5 c -3.5,0 -6.4,2.9 -6.4,6.4 0,3.5 2.9,6.4 6.4,6.4 3.5,0 6.4,-2.9 6.4,-6.4 0,-3.5 -2.9,-6.4 -6.4,-6.4 z m 0,8.5 c -1.2,0 -2.1,-1 -2.1,-2.1 0,-1.2 1,-2.1 2.1,-2.1 1.1,0 2.1,1 2.1,2.1 0,1.2 -0.9,2.1 -2.1,2.1 z" />
				<circle
   id="circle513"
   r="4.3000002"
   cy="399.5"
   cx="267.5" />
				<circle
   id="circle515"
   r="4.3000002"
   cy="408.10001"
   cx="280.29999" />
				<path
   id="path517"
   d="m 247,322.2 c 0.4,0.4 1,0.6 1.5,0.6 0.5,0 1.1,-0.2 1.5,-0.6 l 31.6,-31.5 c 9.5,-9.5 9.5,-25 0,-34.6 -4.6,-4.6 -10.8,-7.2 -17.3,-7.2 0,0 0,0 0,0 -5.8,0 -11.4,2 -15.8,5.8 -9.6,-8.1 -24,-7.7 -33.1,1.4 -9.5,9.5 -9.5,25 0,34.6 z m -28.5,-63.1 c 3.9,-3.9 9.1,-5.9 14.3,-5.9 5.2,0 10.3,2 14.2,5.9 0.3,0.4 0.8,0.6 1.3,0.7 0.6,0.1 1.1,-0.1 1.6,-0.5 0,0 0.1,-0.1 0.1,-0.1 0,0 0,0 0,0 3.8,-3.8 8.9,-5.9 14.3,-5.9 0,0 0,0 0,0 5.4,0 10.5,2.1 14.3,5.9 7.9,7.9 7.9,20.7 0,28.5 l -30.1,30 -30,-30 c -7.9,-7.9 -7.9,-20.7 0,-28.6 z" />
				<path
   id="path519"
   d="m 265.4,263.2 c 5.9,0 10.7,4.8 10.7,10.7 0,1.2 1,2.1 2.1,2.1 1.1,0 2.1,-1 2.1,-2.1 0,-8.2 -6.7,-14.9 -14.9,-14.9 -1.2,0 -2.1,1 -2.1,2.1 0,1.1 0.9,2.1 2.1,2.1 z" />
				<path
   id="path521"
   d="m 285.3,330.6 c -4.2,-4.2 -10.7,-4.6 -15.4,-1.3 -4.7,-3.3 -11.2,-2.9 -15.4,1.3 -4.7,4.7 -4.7,12.3 0,16.9 l 13.9,13.9 c 0.4,0.4 1,0.6 1.5,0.6 0.5,0 1.1,-0.2 1.5,-0.6 l 13.9,-13.9 c 4.7,-4.7 4.7,-12.2 0,-16.9 0,0 0,0 0,0 z m -3,13.9 -12.4,12.4 -12.4,-12.4 c -3,-3 -3,-7.9 0,-10.9 1.5,-1.5 3.5,-2.3 5.4,-2.3 1.9,0 3.9,0.8 5.5,2.3 0.8,0.8 2.2,0.8 3,0 3,-3 7.9,-3 10.9,0 3,3 3,7.9 0,10.9 z" />
			</g></g><g
   transform="translate(600.89019,4.325002)"
   id="g565">
			</g><g
   transform="translate(600.89019,4.325002)"
   id="g567">
			</g><g
   transform="translate(600.89019,4.325002)"
   id="g569">
			</g><g
   transform="translate(600.89019,4.325002)"
   id="g571">
			</g><g
   transform="translate(600.89019,4.325002)"
   id="g573">
			</g><g
   transform="translate(600.89019,4.325002)"
   id="g575">
			</g>

</svg>