<?xml version="1.0" encoding="UTF-8" standalone="no"?>
<svg
   xmlns:dc="http://purl.org/dc/elements/1.1/"
   xmlns:cc="http://creativecommons.org/ns#"
   xmlns:rdf="http://www.w3.org/1999/02/22-rdf-syntax-ns#"
   xmlns:svg="http://www.w3.org/2000/svg"
   xmlns="http://www.w3.org/2000/svg"
   height="406.08798"
   width="978.12537"
   id="svg252"
   version="1.1"
   viewBox="0 0 978.12539 406.08798">
  <metadata
     id="metadata258">
    <rdf:RDF>
      <cc:Work
         rdf:about="">
        <dc:format>image/svg+xml</dc:format>
        <dc:type
           rdf:resource="http://purl.org/dc/dcmitype/StillImage" />
        <dc:title></dc:title>
      </cc:Work>
    </rdf:RDF>
  </metadata>
  <defs
     id="defs256" />
  <g
     style="fill:#ffffff;fill-opacity:1"
     transform="translate(607.51212,-0.72303834)"
     id="g6">
    <path
       style="fill:#ffffff;fill-opacity:1"
       id="path2"
       d="m 176.31,90.536 c -2.729,-1.117 -3.572,5.791 -3.958,8.292 -0.57199,3.707 1.081,6.047 1.132,9.423 0.314,-0.063 0.62801,-0.125 0.942,-0.188 -1.35,-5.984 1.242,-11.637 1.884,-17.527" />
    <path
       style="fill:#ffffff;fill-opacity:1"
       id="path4"
       d="m 174.43,108.06 c -0.977,0.862 -0.011,1.911 1.507,3.015 -0.621,-0.804 -1.01,-2.021 -1.507,-3.015" />
  </g>
  <path
     style="fill:#ffffff;fill-opacity:1"
     id="path8"
     d="m 977.19212,266.40696 c -1.14,-32.585 -0.563,-65.914 -12.062,-96.871 -0.377,0.25099 -0.755,0.502 -1.132,0.75299 -3.007,-9.928 -8.001,-17.846 -17.526,-22.615 -3.911,-1.958 -7.15,-2.833 -11.309,-2.261 -2.11,0.28999 -6.387,2.896 -8.104,2.26 -6.362,-2.358 -8.077,-21.206 -6.408,-26.196 1.154,-3.451 3.541,-7.366 2.072,-11.026 -1.071,-2.673 -4.163,-5.029 -2.072,-8.01 1.63,1.961 2.937,4.901 3.298,7.446 0.623,4.382 0.583,5.241 4.24,6.879 1.586,0.71 3.132,1.095 4.901,1.13 3.578,0.071 3.392,1.245 3.392,-3.392 0,-5.58 1.918,-11.393 -1.884,-15.265996 -4.688,-4.776 -11.859,-9.304 -18.282,-11.308 -4.258,-1.328 -8.588,-0.861 -12.815,-1.697 -2.083,-0.41201 -3.62,1.255 -3.864,-1.413002 -0.228,-2.492 -1.691,-4.356 -3.109,-6.313 -1.328,-1.833 -10.519,-14.521 -2.639,-13.005 4.815,0.92699 0.448,6.852 2.451,7.727 1.325,0.579 3.392,-3.497 3.392,-4.334 0,-2.405 -2.235,-4.057 -3.959,-5.464 -3.006,-2.455 -6.044,-2.784 -10.74,-3.582 1.889,-3.204 6.175,-2.667 8.48,-5.466 -5.958,-4.434 -13.346,3.372 -15.455,8.293 -2.362,5.512 -1.152,12.743 -3.392,18.469 -2.686,6.870002 -7.567,14.111002 -12.439,19.600998 7.481,-0.593 11.299,0.96201 13.946,-6.312996 1.371,-3.765 2.73,-8.587 4.9,-11.968002 2.351,-3.662 4.381,-4.508 4.994,-9.423 0.412,-3.299 1.396,-5.372 1.979,-8.104 0.56,9.99e-4 1.048,0.11401 1.507,0.188 -3.437,7.827 2.309,11.799 5.843,17.999 3.151,5.529002 -4.619,5.496002 -8.48,7.821002 -3.171,1.91 -6.472,5.273 -8.293,8.481 4.838,-0.44 9.675,-0.87999 14.513,-1.32 -0.71,-0.77502 -0.841,-1.857 -1.508,-2.637 4.598,-0.333 11.149,-3.94 15.643,-2.452 7.552,2.501 1.071,4.133 -1.931,5.084 -3.048,0.96499 -7.628,3.299996 -10.509,2.831996 -0.883,-0.144 -1.229,-2.869996 -1.98,-2.800996 -4.385,0.399 -8.769,0.797 -13.152,1.196 -2.542,0.231 -3.453,5.475996 -4.09,7.635996 -1.656,5.62 -3.628,10.733 -5.938,16.114 -2.469,5.754 -0.649,7.247 3.11,11.213 2.289,2.415 4.411,7.979 7.914,6.974 2.723,-0.782 2.468,-4.927 5.089,-5.089 0.213,-0.28099 0.245,-6.273 2.263,-3.957 0.843,0.96701 0.536,4.522 2.262,6.784 2.895,3.795 9.751,7.669 9.988,12.438 -5.938,-4.805 -16.816,4.462 -21.508,7.98 -8.602,6.451 -13.951,14.932 -18.541,24.531 -7.396,15.47 -13.345,32.135 -19.506,48.153 -3.142,8.167 -5.883,16.668 -9.801,24.501 -2.077,4.152 -4.394,8.233 -7.042,12.042 -1.277,1.836 -4.65,1.224 -2.854,3.788 4.301,6.14 13.132,2.668 18.941,2.64 3.086,-0.015 8.507,1.465 10.555,-1.603 0.063,-0.094 0.126,-0.18799 0.188,-0.28198 1.741,1.13 2.697,0.233 3.204,-1.697 0.314,0.25201 0.628,0.50302 0.942,0.755 -0.478,2.198 3.317,2.827 3.77,5.653 0.275,1.724 -2.285,6.587 -4.146,6.974 2.294,3.854 13.413,18.73 19.034,14.7 0.79,3.38 11.327,3.171 14.324,0.94202 3.759,-2.795 2.368,-7.348 7.35,-8.293 2.82,-0.535 5.739,1.263 9.046,2.449 6.573,2.358 13.026,6.409 19.884,6.409 5.375,0 3.216,-2.278 3.109,-6.219 -0.05,-1.845 0.955,-8.073 2.64,-4.712 2.451,0.52899 19.362,8.243 12.25,-0.18903 5.313,-2.826 12.516,1.374 12.061,-5.842 -0.303,-4.808 -3.813,-12.881 4.241,-7.539 2.872,1.904 2.261,3.683 6.125,3.77 1.328,0.03 8.569,-1.853 8.765,-2.639 0.645,-2.586 -4.098,-6.22 0.849,-6.22 4.003,0.002 4.872,-1.316 3.015,-5.087" />
  <path
     style="fill:#ffffff;fill-opacity:1"
     id="path10"
     d="m 906.13212,90.000964 c -4.168,1.138 -10.314,3.191 -14.511,3.392 -3.202,0.153 -3.58,0.466 -1.132,-1.885 2.749,-2.639 14.096,-3.816 15.643,-1.507" />
  <path
     style="fill:#ffffff;fill-opacity:1"
     id="path12"
     d="m 970.78212,200.65696 c 0.104,0.664 0.232,1.488 0,0" />
  <path
     style="fill:#ffffff;fill-opacity:1"
     id="path14"
     d="m 969.27212,190.48696 c 0.067,0.27 0.577,1.044 0.189,1.695 0.072,-0.46999 -0.15,-1.539 -0.189,-1.695" />
  <path
     style="fill:#ffffff;fill-opacity:1"
     id="path16"
     d="m 966.82212,196.13696 c 0.537,4.292 1.317,8.488 0.755,12.815 -0.582,-4.053 -2.15,-8.822 -0.755,-12.815" />
  <path
     style="fill:#ffffff;fill-opacity:1"
     id="path18"
     d="m 964.94212,172.76696 c -0.126,-0.942 -0.251,-1.884 -0.377,-2.827 0.126,0.94299 0.251,1.885 0.377,2.827" />
  <path
     style="fill:#ffffff;fill-opacity:1"
     id="path20"
     d="m 930.64212,149.77696 c -0.827,-0.20599 -0.827,-0.20599 0,0" />
  <path
     style="fill:#ffffff;fill-opacity:1"
     id="path22"
     d="m 906.13212,147.13696 c 3.474,-0.48601 6.067,0.271 7.538,-2.074 0.502,-0.8 -2.984,-2.972 -0.188,-3.674 1.406,-0.353 4.418,-0.418 5.842,0.095 -0.973,0.77499 -7.654,1.621 -3.957,3.77 2.18,1.267 4.9,-1.194 7.352,-1.507 -1.623,2.874 -8.113,2.806 -5.654,6.784 -1.72,-5.59 -10.266,1.258 -10.933,-3.394" />
  <path
     style="fill:#ffffff;fill-opacity:1"
     id="path24"
     d="m 895.96212,162.21696 c 0.478,-3.282 2.117,-4.514 4.521,-6.596 -0.117,0.10199 5.754,-5.395 4.336,-1.697 -0.696,1.816 -4.286,2.561 -5.654,4.618 -1.006,1.513 -2.619,3.07 -3.769,4.24 -0.484,0.478 0.448,-0.437 0.566,-0.565" />
  <path
     style="fill:#ffffff;fill-opacity:1"
     id="path26"
     d="m 890.12212,170.69696 c 0.688,-1.699 0.897,-3.925 2.827,-4.524 1.757,2.187 0.529,3.735 -0.941,5.937 -2.337,3.496 -4.394,1.123 -1.886,-1.413" />
  <path
     style="fill:#ffffff;fill-opacity:1"
     id="path28"
     d="m 910.66212,176.91696 c -8.404,15.351 -18.343,29.466 -27.863,44.115 -4.544,6.99 -8.664,14.177 -12.532,21.561 -1.834,3.501 -3.096,11.62 -7.098,12.161 7.274,-17.856 14.756,-32.589 25.442,-48.437 4.726,-7.007 8.55,-13.403 13.192,-20.542 2.387,-3.67 4.563,-7.14 6.409,-11.12 1.934,-4.171 1.86,-9.555 4.334,-13.57 0.983,5.648 -1.722,10.74 -1.884,15.832" />
  <path
     style="fill:#ffffff;fill-opacity:1"
     id="path30"
     d="m 914.05212,155.80696 c 1.957,-3.409 5.997,7.884 6.408,9.988 0.92,4.704 0.452,9.877 -0.754,14.135 -0.892,-8.008 -2.475,-16.604 -5.654,-24.123" />
  <path
     style="fill:#ffffff;fill-opacity:1"
     id="path32"
     d="m 921.97212,201.03696 c -1.098,3.182 -2.595,6.188 -3.582,9.424 0.248,-10.186 4.506,-20.186 5.938,-30.248 1.361,-9.571 0.12,-18.172 -1.979,-27.611 5.334,2.225 4.796,11.956 4.994,16.491 0.478,10.942 -1.898,21.65 -5.371,31.944" />
  <path
     style="fill:#ffffff;fill-opacity:1"
     id="path34"
     d="m 927.81212,236.46696 c 1.065,-11.9 5.717,-22.85 6.408,-34.865 0.61,-10.606 0.111,-21.729 1.697,-32.228 3.228,23.238 0.262,45.227 -8.105,67.093" />
  <path
     style="fill:#ffffff;fill-opacity:1"
     id="path36"
     d="m 933.65212,166.54696 c 0.36,-0.25299 0.014,-0.802 0.942,-0.565 0.142,1.03 -0.438,0.21101 -0.942,0.565" />
  <path
     style="fill:#ffffff;fill-opacity:1"
     id="path38"
     d="m 945.71212,206.12696 c -1.825,13.38 -1.14,28.182 -6.029,40.897 3.5,-29.216 9.546,-66.287 -5.089,-93.48 13.723,15.1 11.779,33.492 11.118,52.583" />
  <path
     style="fill:#ffffff;fill-opacity:1"
     id="path40"
     d="m 957.59212,182.00696 c -1.76,-10.706 -5.791,-20.408 -13.947,-27.705 -0.978,2.174 0.534,4 1.13,6.219 -3.298,-4.375 -7.301,-8.257 -11.873,-11.308 7.33,-4.963 17.244,10.246 20.544,15.267 6.377,9.703 5.742,20.429 6.596,31.663 -1.237,-4.508 -0.654,-10.05 -2.45,-14.136" />
  <path
     style="fill:#ffffff;fill-opacity:1"
     id="path42"
     d="m 960.23212,196.88696 c -0.044,0.61 -0.01,1.538 -0.188,1.885 -0.047,-0.35002 0.187,-1.877 0.188,-1.885" />
  <path
     style="fill:#ffffff;fill-opacity:1"
     id="path44"
     d="m 960.42212,217.99696 c -0.688,-6.204 -0.378,-12.605 -0.378,-18.847 0.43,5.415 2.981,13.88 0.378,18.847" />
  <path
     style="fill:#ffffff;fill-opacity:1"
     id="path46"
     d="m 947.03212,150.15696 c -2.248,-1.409 -4.448,-2.89 -6.784,-4.147 7.966,3.083 14.304,6.37 17.939,14.673 4.746,10.837 10.443,26.229 4.864,37.533 -0.972,-6.917 0.087,-14.025 -1.13,-20.919 -1.894,-10.738 -7.908,-19.162 -14.889,-27.14" />
  <path
     style="fill:#ffffff;fill-opacity:1"
     id="path48"
     d="m 968.90212,271.89696 c 0.45,1.111 0.296,2.289 0.942,3.393 -7.024,0.81198 -7.922,0.181 -6.126,-6.975 1.346,-5.363 1.622,-11.507 1.931,-17.024 0.293,-5.244 -0.618,-14.138 1.934,-18.596 -0.72,6.11 -2.437,18.264 0.564,23.748 1.869,-7.535 0.975,-15.854 1.787,-23.573 1.064,-10.11 2.037,-20.573 0.853,-30.705 2.165,14.717 2.26,29.24 2.26,44.087 0,2.507 2.278,20.483 1.037,21.311 -2.144,1.429 -5.133,1.387 -5.182,4.334" />
  <g
     style="fill-rule:evenodd;fill:#ffffff;fill-opacity:1"
     transform="translate(607.51212,-0.72303834)"
     id="g78">
    <path
       style="fill:#ffffff;fill-opacity:1"
       id="path50"
       d="m 191.01,108.82 c 1.291,0.847 7.01,2.271 5.842,-1.507 -0.636,-2.059 -6.572,-1.752 -5.842,1.507" />
    <path
       style="fill:#ffffff;fill-opacity:1"
       id="path52"
       d="m 250.94,104.51 c -6.902,-3.866 -10.895,-2.58 -19.123,-1.894 -11.342,0.94601 -22.684,1.891 -34.025,2.836 3.679,7.823 -11.094,7.569 -8.669,0.753 -4.586,0.377 -9.172,0.754 -13.758,1.132 0.483,1.506 1.379,2.955 2.45,3.957 -0.55701,-0.325 -1.261,-0.503 -1.885,-0.942 2.421,3.085 4.405,6.409 5.276,10.178 0.88699,3.837 1.304,8.733 0.56499,12.628 -0.957,5.048 -2.119,3.538 -6.407,5.277 -17.288,7.01 -20.57,29.268 -18.58,45.689 2.361,19.487 4.033,39.114 7.683,58.422 1.778,9.404 3.255,18.849 5.229,28.22 0.37001,1.757 7.782,3.875 10.567,3.365 -0.091,-1.302 0.196,-0.703 0.37801,-1.508 2.965,10.32 4.609,20.448 9.032,30.405 3.077,6.93 4.93,14.375 4.726,21.988 -5.11,-0.966 -16.387,-4.628 -20.167,-1.037 -7.105,6.75 -14.241,13.458 -21.296,20.261 -6.445,6.215 -12.904,12.41 -19.318,18.658 -3.389,3.302 -6.707,6.673 -10.083,9.987 -2.218,2.178 -10.079,7.588 -7.539,10.179 13.25,-11.925 25.803,-24.804 38.574,-37.247 6.843,-6.668 13.692,-13.277 20.793,-19.67 3.453,-3.108 9.255,-0.392 13.609,0.37903 6.626,1.174 6.438,1.083 7.122,7.724 1.364,13.258 2.415,26.824 4.245,39.698 1.115,7.847 3.569,15.049 5.556,22.686 0.783,3.01 0.325,8.909 3.58,10.177 2.375,-7.188 6.297,-14.033 5.654,-21.862 -0.426,-5.182 -3.021,-12.461 -4.711,-17.526 -2.394,-7.177 -3.441,-15.25 -3.909,-22.777 -0.324,-5.212 1.121,-9.952 0.51601,-15.105 26.279,5.709 53.241,9.703 79.762,14.199 13.017,2.206 26.011,4.53 39.008,6.846 6.568,1.171 37.34,10.215 40.862,4.775 -42.657,-7.24 -85.251,-14.856 -127.87,-22.303 -9.238,-1.614 -19.352,-2.419 -28.366,-5.025 -4.457,-1.288 -3.939,-0.75299 -4.146,-5.465 -0.177,-4.02 0.255,-7.882 0.189,-11.874 -0.164,-10.084 -1.217,-20.705 -4.252,-30.329 -2.926,-9.275 -1.702,-21.66 -0.74699,-31.264 1.704,-17.128 6.653,-34.242 9.333,-51.299 2.209,-14.063 5.192,-29.796 1.845,-43.86 -0.73399,-3.083 -4.918,-5.256 -5.236,-8.533 -0.54401,-5.59 4.561,-14.702 7.315,-19.433 3.244,-5.572 5.271,-10.306 7.762,-15.434 1.011,-2.079 2.78,-10.906 4.899,-4.711 0.377,-0.251 0.755,-0.503 1.132,-0.755 -1.733,2.544 1.858,3.299 3.015,5.277 5.78,-2.918 13.367,4.522 19.225,7.161 4.288,1.932 6.786,4.432 8.856,-0.752 2.261,-5.658 4.461,-11.41 6.974,-16.962 -6.894,0.54599 -10.878,-0.05301 -15.642,4.71" />
    <path
       style="fill:#ffffff;fill-opacity:1"
       id="path54"
       d="m 186.49,138.81 c 5.403,-1.34 11.99,0.317 15.832,4.334 -2.85,-0.323 -15.924,-3.357 -15.832,-4.334" />
    <path
       style="fill:#ffffff;fill-opacity:1"
       id="path56"
       d="m 188,173.49 c 1.078,0.50101 2.004,1.065 2.45,1.885 -6.526,-1.008 -11.89,-13.131 -14.89,-17.527 4.393,4.312 9.969,10.495 12.44,15.642" />
    <path
       style="fill:#ffffff;fill-opacity:1"
       id="path58"
       d="m 162.18,179.33 c -0.10399,-0.66 -0.235,-1.488 0,0" />
    <path
       style="fill:#ffffff;fill-opacity:1"
       id="path60"
       d="m 170.09,215.52 c -1.194,-5.277 -2.387,-10.554 -3.581,-15.831 3.903,11.082 6.744,22.507 11.308,33.359 -3.532,-5.276 -5.422,-11.665 -7.727,-17.528" />
    <path
       style="fill:#ffffff;fill-opacity:1"
       id="path62"
       d="m 171.79,157.66 c 1.009,-0.82701 7.021,12.804 8.48,15.643 2.882,5.604 8.632,10.699 10.932,16.02 -8.424,-4.814 -14.062,-17.968 -16.963,-26.763 0.91101,11.52 7.72,21.073 15.455,29.212 -11.13,-7.789 -17.157,-20.71 -17.904,-34.112" />
    <path
       style="fill:#ffffff;fill-opacity:1"
       id="path64"
       d="m 197.8,271.49 c -7.493,0.97699 -7.51,-0.298 -5.708,-7.504 2.308,-9.23 2.606,-18.818 4.808,-28.063 2.404,-10.095 4.194,-20.456 9.382,-29.453 1.305,2.314 -1.481,10.492 -2.184,13.479 -1.347,5.722 -2.54,11.464 -3.693,17.228 -2.275,11.361 -3.262,22.747 -2.605,34.313" />
    <path
       style="fill:#ffffff;fill-opacity:1"
       id="path66"
       d="m 208.54,194.03 c -4.634,-3.25 -3.742,-3.979 0.942,-7.729 0.205,2.672 -0.588,5.132 -0.942,7.729" />
    <path
       style="fill:#ffffff;fill-opacity:1"
       id="path68"
       d="m 210.61,175.19 c -0.26799,2.322 -0.063,4.679 -0.56599,6.974 -1.192,-1.95 -10.513,-7.775 -10.741,-6.786 0.63298,-2.745 8.953,0.51599 11.307,-0.188" />
    <path
       style="fill:#ffffff;fill-opacity:1"
       id="path70"
       d="m 197.61,118.43 c -2.32,-0.338 -4.62,-0.708 -6.784,-1.697 3.823,-1.607 16.512,2.602 19.223,5.844 -4.284,-0.873 -8.264,-2.847 -12.439,-4.147" />
    <path
       style="fill:#ffffff;fill-opacity:1"
       id="path72"
       d="m 230.4,108.06 c -0.314,-0.314 -0.62799,-0.628 -0.94199,-0.942 0.911,-0.064 0.597,0.36401 0.94199,0.942" />
    <path
       style="fill:#ffffff;fill-opacity:1"
       id="path74"
       d="m 236.81,109.95 c -0.028,-0.269 -0.29201,-0.945 0,-1.32 v 1.32" />
    <path
       style="fill:#ffffff;fill-opacity:1"
       id="path76"
       d="m 240.2,111.45 c -0.022,-0.018 1.137,0.96201 0,0" />
  </g>
  <path
     style="fill:#ffffff;fill-opacity:1"
     id="path80"
     d="m 699.57812,111.51696 c -3.725,-0.598 -12.991,-3.964 -16.114,-1.885 -3.68,2.45 -7.256,5.123 -10.836,7.728 -4.81,3.5 -5.113,4.476 -2.356,9.988 1.906,3.812 3.413,7.797 5.56,11.496 1.86,-4.849 6.569,-2.744 8.481,0.565 1.968,3.406 2.351,7.912 4.146,11.497 1.426,2.847 7.884,6.654 8.387,8.67 0.43,1.727 0.471,3.118 0.471,4.9 0,3.874 -1.468,2.734 -4.899,3.393 -7.47,1.434 -13.897,5.977 -18.811,11.59 -11.417,13.041 -20.976,30.479 -29.562,45.499 -5.063,8.857 -10.622,17.549 -17.873,24.8 -1.605,1.603 -18.593,15.792 -18.66,15.454 0.42,2.112 8.134,4.9 9.895,4.994 4.59,0.24301 10.629,-4.982 8.104,3.865 -1.248,4.373 -0.541,8.385 4.335,9.61 3.607,0.90701 6.897,2.08 9.519,-1.413 1.947,-2.596 3.862,-6.868 3.862,-1.225 0,5.033 0.135,8.385 5.844,9.894 2.8,0.73999 5.07,0.30798 7.539,1.32 3.301,1.354 5.368,3.579 9.234,3.579 2.32,0 4.68,-0.802 6.973,-0.18799 1.666,0.44598 3.129,2.054 4.335,2.355 3.054,0.76502 5.99,2.183 8.857,2.544 5.528,0.69601 4.598,-1.582 8.104,-4.145 2.19,-1.601 6.379,-1.419 8.858,-2.827 2.681,-1.523 3.855,-2.339 6.409,-3.204 1.949,-0.66 3.39,-1.74 5.654,-1.32 4.311,0.80002 8.219,9.021 12.815,7.916 3.439,-0.82602 1.813,-6.628 4.052,-9.612 2.669,-3.556 9.675,4.079 14.041,1.132 -1.278,-2.041 -8.664,-4.021 -4.712,-7.352 2.098,-1.769 7.466,1.33 8.481,3.77 1.017,2.443 -0.66701,5.267 0.377,7.916 4.642,-2.907 4.243,-19.376 4.494,-24.637 0.407,-8.506 1.049,-16.972 0.59499,-25.494 -0.93799,-17.572 0.08,-36.321 -5.559,-53.243 -3.208,-9.625 -8.31,-16.315 -17.217,-21.329 -3.18,-1.79 -11.702,-2.773 -13.032,-5.717 -0.453,-1.002 -0.029,-4.545 0.188,-5.654 0.541,-2.766 4.504,-5.876 4.527,-7.805 0.029,-2.456 -1.438,-14.16 0.185,-15.563 2.439,-2.109 2.587,1.991 4.524,1.318 3.694,-1.283 2.861,-9.677 4.712,-12.909 1.899,-3.318 -0.921,-6.669 -3.77,-9.518 -6.112,-6.109 -21.765,4.292 -30.157,-0.75299" />
  <path
     style="fill:#ffffff;fill-opacity:1"
     id="path82"
     d="m 706.17512,153.73696 c -2.575,-0.65001 -3.934,-4.434 -2.639,-6.786 1.372,1.68 1.529,4.587 2.639,6.786" />
  <path
     style="fill:#ffffff;fill-opacity:1"
     id="path84"
     d="m 705.04512,166.73696 c 3.506,-1.05 8.484,-2.353 12.438,-1.695 -3.867,1.869 -8.214,2.175 -12.438,1.695" />
  <path
     style="fill:#ffffff;fill-opacity:1"
     id="path86"
     d="m 717.67212,180.86696 c -0.40199,0.569 -0.84599,1.015 -1.508,1.319 -0.463,-4.779 -3.022,-9.135 -3.58,-13.57 4.011,2.409 5.429,7.838 5.088,12.251" />
  <path
     style="fill:#ffffff;fill-opacity:1"
     id="path88"
     d="m 692.98212,147.88696 c -1.236,-2.661 -3.021,-7.336 -0.377,-9.423 0.808,4.099 6.313,19.674 12.25,15.832 0.063,0.754 0.126,1.508 0.189,2.262 -5.792,0.68599 -8.678,-5.28 -12.062,-8.671" />
  <path
     style="fill:#ffffff;fill-opacity:1"
     id="path90"
     d="m 675.07812,265.86696 c -1.345,0.30402 0.383,-0.087 0,0" />
  <path
     style="fill:#ffffff;fill-opacity:1"
     id="path92"
     d="m 668.48112,254.37696 c -3.328,6.932 -4.521,14.576 -7.916,21.486 -0.482,-1.075 0.8,-9.212 2.073,-10.271 3.253,-2.708 2.078,-10.342 3.393,-13.852 2.07,-5.523 5.98,-10.327 7.632,-16.963 1.816,-7.291 4.79,-12.017 6.69,-18.469 3.935,-13.359 12.521,-23.863 18.847,-35.998 -4.306,-0.649 -12.064,10.481 -15.265,13.757 -1.896,1.941 -4.412,5.78 -6.974,6.596 -2.144,-8.463 6.249,-15.257 11.28,-20.75 3.532,-3.856 7.944,-10.156 13.975,-9.779 -8.021,8.068 -22.071,13.67 -23.558,26.385 2.74,-1.175 3.642,-4.396 5.765,-6.52 3.604,-3.604 7.162,-7.308 11.197,-10.442 1.618,-1.257 7.303,-6.52 9.423,-3.959 0.497,0.60001 -6.31,9.726 -7.351,11.686 -11.488,21.628 -22.134,43.519 -29.211,67.093" />
  <path
     style="fill:#ffffff;fill-opacity:1"
     id="path94"
     d="m 693.54712,234.58696 c -3.846,10.142 -10.286,20.167 -16.962,28.646 4.218,-10.008 10.661,-17.647 14.7,-27.515 3.77,-9.209 8.982,-18.859 12.157,-28.836 3.735,-11.737 5.56,-22.333 5.56,-34.678 6.101,5.095 0.109,24.728 -1.786,30.98 -3.135,10.342 -8.135,22.305 -13.669,31.403" />
  <path
     style="fill:#ffffff;fill-opacity:1"
     id="path96"
     d="m 749.14212,279.81696 c -1.878,-1.021 -3.63,-0.90302 -5.654,-1.412 -3.351,-0.84201 -0.31401,-9.197 0.095,-12.063 1.472,-10.311 3.468,-20.602 4.239,-31.003 2.779,5.135 1.32,16.235 1.32,22.127 0,7.455 0.40901,14.894 0,22.351" />
  <path
     style="fill:#ffffff;fill-opacity:1"
     id="path98"
     d="m 747.26212,225.91696 c 0.188,2.45 0.37599,4.9 0.565,7.351 h -0.752 c 0.034,-2.439 -0.35301,-5.389 0.187,-7.351" />
  <path
     style="fill:#ffffff;fill-opacity:1"
     id="path100"
     d="m 719.18212,164.84696 c 2.772,0.823 5.341,2.062 7.915,3.394 -2.301,1.409 1.488,2.376 3.14,3.834 3.954,3.488 7.018,7.589 8.923,12.561 3.433,8.96 4.419,19 3.727,28.467 -1.687,23.076 -6.135,45.838 -9.004,68.783 3.226,-3.865 1.415,-10.604 4.899,-13.758 0.108,2.236 0.324,13.993 -0.565,15.078 -1.825,2.229 -6.57,-1.229 -9.329,2.449 -0.89,1.187 -2.854,7.43 -4.335,5.654 -4.039,-4.843 -9.604,-4.914 -14.794,-3.205 -3.037,1 -5.522,3.624 -8.105,4.147 5.397,-6.063 8.577,-12.586 12.817,-19.412 1.707,-2.747 3.605,-8.777 5.842,-10.743 2.885,-2.535 2.111,0.79001 1.791,3.675 -0.431,3.886 -1.483,7.701 -1.979,11.591 -0.336,2.639 -2.247,11.261 2.073,9.235 0.979,-0.45902 3.416,-6.467 3.769,-7.351 1.672,-4.177 2.301,-8.704 3.582,-13.004 4.829,-16.216 8.425,-32.152 8.856,-49.19 0.357,-14.092 2.25,-37.58 -12.815,-45.797 -4.748,-2.59 -2.628,-1.672 -2.262,0.942 0.421,3.004 2.077,6.326 2.452,9.611 0.647,5.672 2.169,15.707 -0.377,20.543 -0.411,-7.602 -0.558,-15.193 -2.506,-22.603 -1.299,-4.933 -4.497,-10.662 -3.715,-14.901" />
  <path
     style="fill:#ffffff;fill-opacity:1"
     id="path102"
     d="m 725.59212,205.93696 c 0.046,-1.001 -0.195,-1.779 0.37701,-2.262 0.13799,0.679 -0.375,2.246 -0.37701,2.262" />
  <path
     style="fill:#ffffff;fill-opacity:1"
     id="path104"
     d="m 721.06212,145.62696 c 1.024,2.178 -2.456,6.961 -5.278,7.539 0.699,-3.196 2.906,-5.58 5.278,-7.539" />
  <path
     style="fill:#ffffff;fill-opacity:1"
     id="path106"
     d="m 713.52212,141.48696 c 5.671,-3.338 -1.355,12.705 -3.394,14.7 0.354,-5.152 3.846,-9.46 3.394,-14.7" />
  <path
     style="fill:#ffffff;fill-opacity:1"
     id="path108"
     d="m 708.43212,153.91696 c -0.234,0.533 0.425,0.923 -0.37701,0.942 -0.209,-1.974 -3.78,-10.059 -3.392,-10.176 2.746,-0.826 4.145,7.516 3.769,9.234" />
  <path
     style="fill:#ffffff;fill-opacity:1"
     id="path110"
     d="m 778.73212,102.43696 c -0.502,-2.295 -0.41701,-18.690998 4.335,-18.091998 3.137,0.39601 0.34799,10.207002 0.095,11.968002 -0.312,2.17 -2.02,9.134996 -0.28299,10.835996 1.937,1.896 13.89,0.21899 15.455,-3.392 0.14499,1.191 0.65599,0.65 0.18799,2.262 1.633,-0.126 3.267,-0.251 4.899,-0.377 -1.893,-2.103 -1.298,-2.014 0.567,-2.072 0.858,-0.027 0.875,1.921 1.42,1.876 1.866,-0.156 3.732,-0.312 5.599,-0.467 13.931,-1.161 27.862,-2.323 41.793,-3.484 -2.362,-2.022996 0.415,-3.108996 -0.188,-4.898996 -0.855,-2.542 -2.035,-2.066 -3.959,-3.769 -5.09199,-4.508 -8.62799,-11.802002 -12.18699,-17.737002 -2.188,-3.65 -4.138,-7.259 -5.94,-11.12 -0.701,-1.5 -3.543,-0.739 -5.054,-0.921 -6.385,-0.769 -6.803,-4.554 -9.329,-10.46 -1.04,-2.433 0.81201,-11.448 2.356,-13.758 3.427,-5.123 0.632,-8.694 2.92,-14.795 2.875,-7.663 2.571,-17.8870004 -5.371,-22.4270004 -5.063,-2.894 -10.442,-1.91799994 -13.004,3.204 -1.886,3.772 0.007,4.476 -5.089,5.7490004 -7.651,1.911 -12.836,4.182 -15.454,11.779 -1.241,3.602 -1.464,6.36 -1.13,10.365 0.37701,4.522 -0.398,5.116 -2.922,9.33 -1.192,1.991 2.672,3.801 3.203,5.938 0.423,1.704 1.868,6.649 2.733,7.162 1.564,0.926 5.88,-0.749 7.539,-1.13 1.758,-0.404 6.031,-0.743 6.596,-1.885 2.668,3.079 3.095,10.275 -1.507,11.496 -2.207,0.58498 -3.581,-2.7 -6.031,-0.75501 -1.081,0.857 -1.922,7.049 -2.732,8.67 -1.987,3.979 -6.466,4.704 -8.764,9.046 -1.169,2.21 -1.624,4.782002 -2.827,6.974002 -1.237,2.253 -4.368,3.77 -5.278,5.654 -0.407,0.84201 0.688,2.299 0.377,2.827 -0.76,1.293 -1.873,2.725 -3.392,4.051996 -3.607,3.152 -7.248,6.262 -10.931,9.329 7.853,-0.62801 15.706,-1.256 23.559,-1.885 -0.982,-1.528 -1.732,-3.268 -2.262,-5.092" />
  <path
     style="fill:#ffffff;fill-opacity:1"
     id="path112"
     d="m 803.99212,99.606964 c -4.636,2.199996 -7.659,-4.77 -3.204,-6.972 4.606,-2.277 8.471,4.332 3.204,6.972" />
  <path
     style="fill:#ffffff;fill-opacity:1"
     id="path114"
     d="m 805.31212,89.245964 c -7.25,0.88401 -5.241,-9.645002 -2.827,-8.481002 1.279,0.61701 -3.733,6.010002 1.32,6.409002 3.889,0.307 1.547,-4.000002 0.377,-5.654002 4.967,-0.008 4.395,5.530002 1.13,7.726002" />
  <path
     style="fill:#ffffff;fill-opacity:1"
     id="path116"
     d="m 800.22212,71.153962 c 3.691,9.311 16.025,-0.658 21.484,-2.639 -1.184,7.645 -16.327,11.131 -21.861,6.786 -3.528,-2.771 -2.977,-8.638 0.377,-4.147" />
  <path
     style="fill:#ffffff;fill-opacity:1"
     id="path118"
     d="m 727.47212,91.507964 c -0.648,-4.274 -4.156,-6.398 -4.711,-9.801002 -0.046,-0.28299 1.244,-2.249 0.942,-3.58 -0.286,-1.26 -1.939,-2.565 -2.827,-3.392 -2.293,-2.135 -3.064,-2.579 -6.031,-1.885 0.781,-2.566 4.147,-5.437 4.336,-8.67 -5.701,1.614 -7.101,9.988 -12.439,9.988 -4.091,0 -7.539,2.579 -7.539,6.786 0,5.872002 4.539,10.492002 4.901,16.584002 0.343,5.761996 -2.605,4.243996 -7.539,6.218996 -4.258,1.704 -8.179,3.95 -12.25,6.031 4.839,0.776 10.919,1.666 15.077,2.45 -5.034,-3.969 11.471,-4.111 14.135,-3.205 -1.164,2.608 -3.929,3.559 -6.409,4.524 l 21.486,-1.884 c -4.042,-4.342 -8.168,-9.047 -14.135,-9.989 -1.264,-0.199 -5.744,0.374 -6.596,-0.565 -0.635,-0.7 -0.692,-7.240996 -1.32,-8.857996 -1.348,-3.472 -7.436,-11.049002 -2.45,-14.135002 3.059,-1.893 13.54,9.848002 15.83,13.286002 3.091,4.643 6.145,9.310996 9.235,13.946996 4.882,7.322 8.322,5.654 16.773,4.994 -6.979,-5.521 -12.545,-12.247996 -18.469,-18.844996" />
  <path
     style="fill:#ffffff;fill-opacity:1"
     id="path120"
     d="m 715.03212,104.69696 c -0.548,1.54 -18.021,3.678 -18.847,2.639 -1.876,-2.359 15.854,-3.633 18.847,-2.639" />
  <path
     style="fill:#ffffff;fill-opacity:1"
     id="path122"
     d="m 752.35212,113.21696 c -1.683,-0.729 -3.278,-1.617 -4.806,-2.639 -3.467,-2.316 -9.696,-0.311 -13.663,0 3.818,4.714 7.758,10.02 12.061,14.325 5.049,5.051 5.938,4.783 10.743,0.752 7.881,-6.612 17.12,-11.91 24.313,-18.847 -10.509,0.841 -20.817,-0.764 -28.648,6.409" />
  <path
     style="fill-rule:evenodd;fill:#ffffff;fill-opacity:1"
     id="path124"
     d="m 784.01212,91.507964 c 0.94501,-4.705 -0.673,-10.268002 -3.77,-3.298 -2.552,5.745 -3.123,13.917996 0.755,19.129996 -0.20801,-4.614 -3.165,-12.511996 0.752,-16.961996 2.925,-3.324 1.483,2.76 1.132,4.522 -0.627,3.145 -3.117,10.922996 0,12.439996 -0.998,-4.797 -0.209,-10.957996 1.131,-15.831996" />
  <path
     style="fill:#ffffff;fill-opacity:1"
     id="path126"
     d="m 782.88212,107.14696 c -1.301,1.234 0.246,3.548 2.45,4.147 -1.148,-1.074 -1.986,-2.553 -2.45,-4.147" />
  <g
     style="fill:#ffffff;fill-opacity:1"
     transform="translate(607.51212,-0.72303834)"
     id="g144">
    <path
       style="fill:#ffffff;fill-opacity:1"
       id="path128"
       d="m 355.54,198.93 c 5.579,-11.303 -0.11801,-26.696 -4.864,-37.533 -3.636,-8.303 -9.974,-11.591 -17.939,-14.673 7.695,4.14 13.467,10.584 17.245,18.565 5.358,11.321 3.896,21.811 5.558,33.641" />
    <g
       style="fill-rule:evenodd;fill:#ffffff;fill-opacity:1"
       id="g138">
      <path
         style="fill:#ffffff;fill-opacity:1"
         id="path130"
         d="m 117.89,203.08 c 2.814,-5.344 0.924,-16.446 0.098,-22.638 -0.348,-2.609 -2.386,-5.825 -2.547,-8.082 -0.3,-4.209 3.135,-0.066 5.723,2.52 12.821,12.811 10.924,35.306 9.257,51.981 -1.706,17.055 -6.257,32.805 -10.74,49.25 -0.699,2.565 -4.903,15.061 -7.633,10.271 -1.854,-3.252 1.174,-13.102 1.886,-16.303 1.016,-4.572 2.188,-11.233 -1.886,-5.561 -2.321,3.231 -4.696,7.829 -6.596,11.498 -3.228,6.23 -6.608,11.682 -11.308,16.962 2.667,-0.54001 4.53,-3.254 7.728,-4.054 1.593,-0.397 2.848,-1.084 4.711,-1.318 4.659,-0.586 6.38,3.188 9.989,3.864 3.014,0.564 2.276,-0.97501 4.24,-4.241 2.752,-4.574 7.978,-0.586 9.895,-2.922 0.949,-1.156 0.67601,-13.157 0.565,-15.453 -3.485,3.154 -1.673,9.893 -4.899,13.758 2.868,-22.944 7.317,-45.71 9.004,-68.783 0.692,-9.467 -0.29399,-19.507 -3.727,-28.467 -1.672,-4.363 -4.326,-8.505 -7.821,-11.589 -1.712,-1.511 -6.627,-3.345 -4.241,-4.806 -2.484,-1.286 -4.97,-2.642 -7.727,-3.204 -1.601,3.657 2.387,10.388 3.525,14.713 1.946,7.411 2.093,15.003 2.504,22.604" />
      <path
         style="fill:#ffffff;fill-opacity:1"
         id="path132"
         d="m 193.65,77.154 c 5.739,2.392 19.436,-0.766 20.542,-7.916 -5.705,2.07 -13.085,9.312 -19.129,5.278 -1.252,-0.835 -4.442,-6.009 -5.938,-3.769 -1.272,1.907 3.442,5.549 4.525,6.407" />
      <path
         style="fill:#ffffff;fill-opacity:1"
         id="path134"
         d="m 196.67,82.055 c 1.529,2.514 1.386,9.208 -2.262,5.087 -0.123,-0.139 0.31699,-10.349 -1.885,-3.77 -0.966,2.887 1.62,7.707 5.276,6.596 4.53,-1.374 2.642,-7.566 -1.129,-7.913" />
      <path
         style="fill:#ffffff;fill-opacity:1"
         id="path136"
         d="m 288.83,89.594 c -1.579,0.71601 -8.862,3.097 -7.351,4.712 1.057,1.129 14.75,-3.022 17.149,-3.394 v -0.75201 c -3.209,-0.877 -6.837,0.27901 -9.798,-0.56601" />
    </g>
    <path
       style="fill:#ffffff;fill-opacity:1"
       id="path140"
       d="m 194.78,92.986 c -4.819,0.451 -4.881,7.728 0,7.916 5.525,0.213 5.61,-7.07 0,-7.916" />
    <path
       style="fill:#ffffff;fill-opacity:1"
       id="path142"
       d="m 197.23,98.64 c -3.783,0.78101 -6.211,-2.435 -3.015,-4.712 2.122,1.12 5.387,2.246 3.015,4.712" />
  </g>
  <path
     style="fill-rule:evenodd;fill:#ffffff;fill-opacity:1"
     id="path146"
     d="m 801.73212,93.204964 c -6.787,4.836 11.257,5.94 0,0" />
  <g
     style="fill:#ffffff;fill-opacity:1"
     transform="translate(607.51212,-0.72303834)"
     id="g250">
    <path
       style="fill-rule:evenodd;fill:#ffffff;fill-opacity:1"
       id="path148"
       d="m 190.82,104.29 c -0.692,0.758 -1.162,1.787 -1.697,2.638 2.279,-0.172 2.888,-1.098 1.697,-2.638" />
    <path
       style="fill:#ffffff;fill-opacity:1"
       id="path150"
       d="m 196.85,107.5 c -0.433,3.938 -6.889,2.804 -5.842,-0.755 -4.903,-0.002 -0.299,6.323 3.77,5.466 3.624,-0.763 5.195,-6.682 1.13,-5.844 0.556,0.255 0.75601,0.604 0.942,1.133" />
    <path
       style="fill-rule:evenodd;fill:#ffffff;fill-opacity:1"
       id="path152"
       d="m 194.97,103.73 c -0.483,1.932 0.618,2.884 2.827,2.45 -0.491,-1.671 -1.404,-2.077 -2.827,-2.45" />
    <path
       style="fill:#ffffff;fill-opacity:1"
       id="path154"
       d="m 89.239,108.82 c 3.492,-1.325 7.577,-1.884 11.308,-1.884 2.6,0 11.132,-1.526 4.052,-2.167 -2.783,-0.251 -19.163,0.386 -15.36,4.051" />
    <path
       style="fill-rule:evenodd;fill:#ffffff;fill-opacity:1"
       id="path156"
       d="m 230.4,108.06 c -0.34499,-0.578 -0.031,-1.006 -0.94199,-0.942 0.314,0.314 0.627,0.62801 0.94199,0.942" />
    <path
       style="fill:#ffffff;fill-opacity:1"
       id="path158"
       d="m 236.43,109.95 c 0.088,-0.265 0.627,-0.706 0.189,-1.32 0.085,0.453 -0.13899,1.17 -0.189,1.32" />
    <path
       style="fill:#ffffff;fill-opacity:1"
       id="path160"
       d="m 240.2,111.45 c 1.137,0.96201 -0.022,-0.018 0,0" />
    <path
       style="fill:#ffffff;fill-opacity:1"
       id="path162"
       d="m 191.39,115.26 c -0.188,1.434 15.742,6.002 18.657,6.596 -3.466,-4.146 -13.733,-5.613 -18.657,-6.596" />
    <path
       style="fill:#ffffff;fill-opacity:1"
       id="path164"
       d="m 186.68,139.94 c 5.489,-0.474 10.297,2.596 15.643,3.204 -2.362,-2.471 -17.018,-6.965 -15.643,-3.204" />
    <path
       style="fill:#ffffff;fill-opacity:1"
       id="path166"
       d="m 97.533,157.28 c -0.063,-0.754 -0.126,-1.508 -0.189,-2.262 -5.937,3.842 -11.442,-11.733 -12.25,-15.832 -6.4,5.054 6.662,18.778 12.439,18.094" />
    <g
       style="fill-rule:evenodd;fill:#ffffff;fill-opacity:1"
       id="g172">
      <path
         style="fill:#ffffff;fill-opacity:1"
         id="path168"
         d="m 103.19,156.72 c 1.169,-2.208 9.41,-13.137 4.334,-15.077 -1.004,-0.384 -5.273,13.934 -4.334,15.077" />
      <path
         style="fill:#ffffff;fill-opacity:1"
         id="path170"
         d="m 309.56,151.25 c -2.459,-3.978 4.031,-3.91 5.654,-6.784 -2.451,0.313 -5.172,2.774 -7.352,1.507 -3.697,-2.149 2.984,-2.995 3.957,-3.77 -1.717,-0.618 -5.995,-0.607 -6.972,0.942 -1.687,2.676 4.058,2.747 -1.509,4.522 -0.81,0.258 -8.556,1.885 -2.92,1.885 3.113,0.002 7.857,-2.479 9.142,1.698" />
    </g>
    <path
       style="fill:#ffffff;fill-opacity:1"
       id="path174"
       d="m 96.401,145.98 c 2.47,2.858 3.284,6.688 4.524,9.611 0.382,-2.456 -0.846,-11.869 -4.524,-9.611" />
    <g
       style="fill-rule:evenodd;fill:#ffffff;fill-opacity:1"
       id="g186">
      <path
         style="fill:#ffffff;fill-opacity:1"
         id="path176"
         d="m 114.3,147.1 c -2.81,-0.60399 -5.417,3.978 -6.031,6.786 3.301,-0.67601 4.367,-4.242 6.031,-6.786" />
      <path
         style="fill:#ffffff;fill-opacity:1"
         id="path178"
         d="m 98.663,154.46 c -1.11,-2.199 -1.266,-5.106 -2.639,-6.786 -1.295,2.352 0.063,6.136 2.639,6.786" />
      <path
         style="fill:#ffffff;fill-opacity:1"
         id="path180"
         d="m 351.4,181.97 c 0.655,-8.267 -4.329,-15.282 -8.856,-21.673 -2.943,-4.156 -11.364,-14.284 -17.151,-10.366 4.572,3.051 8.575,6.934 11.873,11.308 -0.59601,-2.219 -2.107,-4.045 -1.13,-6.219 12.975,11.608 12.187,26.483 16.396,41.84 -0.37701,-4.963 -0.755,-9.926 -1.132,-14.89" />
      <path
         style="fill:#ffffff;fill-opacity:1"
         id="path182"
         d="m 293.35,157.09 c 3.099,-1.166 5.683,-4.965 0.94101,-2.827 -2.265,1.021 -5.492,6.269 -5.841,8.67 1.719,-1.883 3.304,-3.854 4.9,-5.843" />
      <path
         style="fill:#ffffff;fill-opacity:1"
         id="path184"
         d="m 288.45,162.94 c -0.884,0.921 -0.63501,0.662 0,0" />
    </g>
    <path
       style="fill:#ffffff;fill-opacity:1"
       id="path188"
       d="m 314.83,153.32 c 2.099,9.439 3.34,18.041 1.979,27.611 -1.432,10.062 -5.689,20.063 -5.938,30.248 3.05,-9.991 7.011,-19.065 8.394,-29.665 0.84097,-6.449 3.424,-24.68 -4.435,-28.194" />
    <path
       style="fill-rule:evenodd;fill:#ffffff;fill-opacity:1"
       id="path190"
       d="m 326.9,154.27 c 7.61,11.586 8.671,28.203 8.671,41.558 0,17.367 -1.324,34.666 -3.392,51.923 5.438,-14.141 5.259,-31.961 6.258,-46.952 1.063,-15.931 1.45,-35.094 -11.537,-46.529" />
    <path
       style="fill:#ffffff;fill-opacity:1"
       id="path192"
       d="m 312.2,180.65 c 1.885,-6.653 2.791,-21.485 -5.465,-25.253 -0.423,3.94 2.487,10.556 3.675,14.512 1.05,3.5 1.392,7.174 1.79,10.741" />
    <path
       style="fill-rule:evenodd;fill:#ffffff;fill-opacity:1"
       id="path194"
       d="m 188.56,187.44 c 0.82901,0.68399 1.763,1.26 2.638,1.885 -2.202,-5.095 -7.789,-9.74 -10.492,-15.14 -2.895,-5.786 -5.407,-11.808 -8.543,-17.464 -3.365,12.087 8.284,28.585 17.527,35.054 -7.735,-8.14 -14.544,-17.693 -15.455,-29.212 3.065,9.29 8.097,17.403 14.325,24.877" />
    <path
       style="fill:#ffffff;fill-opacity:1"
       id="path196"
       d="m 190.45,175.38 c -5.146,-4.468 -9.525,-12.262 -14.89,-17.527 3,4.396 8.363,16.519 14.89,17.527" />
    <path
       style="fill-rule:evenodd;fill:#ffffff;fill-opacity:1"
       id="path198"
       d="m 304.85,161.8 c -4.023,8.561 -5.29,16.593 -10.556,24.69 -4.643,7.139 -8.467,13.535 -13.192,20.542 -10.687,15.848 -18.168,30.58 -25.442,48.437 4.267,-0.577 9.819,-17.33 12.241,-21.647 6.135,-10.935 13.478,-21.134 20.486,-31.513 5.361,-7.94 13.216,-17.919 15.144,-27.125 0.70898,-3.386 2.608,-9.724 1.319,-13.384" />
    <path
       style="fill:#ffffff;fill-opacity:1"
       id="path200"
       d="m 97.533,167.08 c 3.407,1.568 8.994,0.34599 12.438,-1.319 -4.352,-0.724 -8.143,1.397 -12.438,1.319" />
    <g
       style="fill-rule:evenodd;fill:#ffffff;fill-opacity:1"
       id="g210">
      <path
         style="fill:#ffffff;fill-opacity:1"
         id="path202"
         d="m 326.9,166.89 c -0.16598,0.012 -0.38199,-0.578 -0.75201,0.377 0.49002,0.058 1.373,-0.42299 0.75201,-0.377" />
      <path
         style="fill:#ffffff;fill-opacity:1"
         id="path204"
         d="m 282.8,175.38 c 1.761,-2.722 4.959,-5.593 2.638,-8.481 -2.034,0.631 -4.984,7.031 -2.638,8.481" />
      <path
         style="fill:#ffffff;fill-opacity:1"
         id="path206"
         d="m 104.88,170.1 c 1.963,4.093 3.33,8.281 3.769,12.815 4.365,-2.298 -1.265,-14.435 -3.769,-12.815" />
      <path
         style="fill:#ffffff;fill-opacity:1"
         id="path208"
         d="m 326.71,202.33 c 0.24899,12.105 -5.342,22.961 -6.408,34.865 8.366,-21.866 11.333,-43.855 8.105,-67.093 -1.611,10.659 -0.18399,21.538 -1.697,32.228" />
    </g>
    <path
       style="fill:#ffffff;fill-opacity:1"
       id="path212"
       d="m 98.098,176.88 c -6.932,-6.978 -22.024,18.244 -26.95,20.356 1.487,-12.715 15.538,-18.317 23.558,-26.385 -6.031,-0.377 -10.443,5.923 -13.975,9.779 -5.032,5.493 -13.424,12.287 -11.28,20.75 2.24,-0.714 4.642,-3.97 6.22,-5.747 3.084,-3.475 11.7,-15.258 16.019,-14.606 -6.222,11.936 -14.254,22.2 -18.564,35.149 -2.252,6.767 -4.046,11.723 -6.878,18.94 -1.224,3.119 -2.173,6.037 -3.392,8.481 -1.438,2.885 -3.335,5.876 -4.334,8.48 -1.541,4.014 -1.513,9.381 -2.827,13.758 -0.788,2.624 -3.814,8.125 -2.64,10.743 8.523,-17.345 12.391,-37.085 20.354,-54.843 6.767,-15.092 13.453,-32.487 24.689,-44.855" />
    <g
       style="fill-rule:evenodd;fill:#ffffff;fill-opacity:1"
       id="g218">
      <path
         style="fill:#ffffff;fill-opacity:1"
         id="path214"
         d="m 102.81,174.24 c -0.44,-0.44 -0.88,-0.87999 -1.32,-1.32 0,12.345 -1.824,22.941 -5.56,34.678 -3.175,9.977 -8.388,19.627 -12.157,28.836 -4.039,9.867 -10.482,17.507 -14.7,27.515 9.649,-12.256 16.309,-26.587 22.703,-40.75 7.243,-16.045 12.558,-31.152 11.034,-48.959" />
      <path
         style="fill:#ffffff;fill-opacity:1"
         id="path216"
         d="m 199.49,176.32 c 3.804,-0.629 8.598,2.645 10.554,5.844 0.50301,-2.295 0.299,-4.652 0.56601,-6.974 -2.925,0.87601 -11.384,-3.161 -11.12,1.13" />
    </g>
    <path
       style="fill:#ffffff;fill-opacity:1"
       id="path220"
       d="m 161.99,179.33 c 0.104,-0.66 0.235,-1.488 0,0" />
    <path
       style="fill:#ffffff;fill-opacity:1"
       id="path222"
       d="m 205.71,189.32 c -1.775,2.172 1.024,3.448 2.827,4.712 0.354,-2.597 1.147,-5.058 0.942,-7.729 -1.256,1.006 -2.512,2.012 -3.769,3.017" />
    <path
       style="fill:#ffffff;fill-opacity:1"
       id="path224"
       d="m 362.14,191.21 c -0.025,0.313 -0.24701,1.285 0,1.695 v -1.695" />
    <path
       style="fill:#ffffff;fill-opacity:1"
       id="path226"
       d="m 359.31,196.86 c -1.396,3.992 0.173,8.762 0.755,12.815 0.56198,-4.326 -0.21802,-8.523 -0.755,-12.815" />
    <path
       style="fill-rule:evenodd;fill:#ffffff;fill-opacity:1"
       id="path228"
       d="m 352.72,199.5 c -0.044,-0.61 -0.01,-1.538 -0.18799,-1.885 -0.047,0.34999 0.18698,1.877 0.18799,1.885" />
    <path
       style="fill:#ffffff;fill-opacity:1"
       id="path230"
       d="m 170.09,215.52 c 2.305,5.863 4.195,12.252 7.727,17.528 -4.563,-10.853 -7.405,-22.277 -11.308,-33.359 1.194,5.277 2.387,10.553 3.581,15.831" />
    <path
       style="fill-rule:evenodd;fill:#ffffff;fill-opacity:1"
       id="path232"
       d="m 352.91,218.72 c 2.604,-4.967 0.053,-13.432 -0.37799,-18.847 0,6.241 -0.311,12.643 0.37799,18.847" />
    <path
       style="fill:#ffffff;fill-opacity:1"
       id="path234"
       d="m 363.46,201.38 c -0.103,0.664 -0.232,1.488 0,0" />
    <path
       style="fill:#ffffff;fill-opacity:1"
       id="path236"
       d="m 361.76,239.83 c -0.22601,5.737 0.26401,11.72 -1.131,17.34 -3.001,-5.484 -1.284,-17.638 -0.564,-23.748 -2.464,4.305 -1.544,12.657 -1.885,17.716 -0.39298,5.832 -0.55499,12.227 -1.979,17.904 -1.796,7.155 -0.89801,7.786 6.126,6.975 -2.129,-3.511 -0.009,-4.271 1.695,-6.597 1.601,-2.185 3.045,0.53299 2.563,-3.575 -0.50897,-4.328 -0.80298,-8.648 -0.93298,-13.005 -0.49899,-16.797 0.072,-33.26 -2.383,-49.948 1.357,11.607 0.729,25.735 -1.509,36.938" />
    <path
       style="fill:#ffffff;fill-opacity:1"
       id="path238"
       d="m 118.08,204.4 c 0.046,1.001 -0.195,1.779 0.37701,2.262 0.13799,-0.67899 -0.375,-2.245 -0.37701,-2.262" />
    <path
       style="fill:#ffffff;fill-opacity:1"
       id="path240"
       d="m 202.13,216.08 c -1.219,6.663 -3.853,14.03 -5.56,21.202 -1.431,6.006 -1.95,12.314 -2.821,18.427 -0.449,3.148 -4.812,13.032 -2.927,15.592 1.434,1.947 7.003,0.729 6.874,-1.522 -0.436,-7.67 0.16299,-15.152 1.034,-22.775 0.80899,-7.075 2.432,-14.172 3.965,-21.124 0.931,-4.219 5.482,-16.037 3.58,-19.411 -1.755,3.043 -2.786,6.373 -4.145,9.611" />
    <path
       style="fill:#ffffff;fill-opacity:1"
       id="path242"
       d="m 139.56,233.99 c 1.221,-1.288 0.504,-4.854 0.377,-7.351 -0.942,2.316 -0.343,4.865 -0.377,7.351" />
    <g
       style="fill-rule:evenodd;fill:#ffffff;fill-opacity:1"
       id="g248">
      <path
         style="fill:#ffffff;fill-opacity:1"
         id="path244"
         d="m 134.09,277.15 c 0.84,2.973 5.016,2.02 7.539,3.392 0.40999,-7.457 0,-14.896 0,-22.351 0,-5.892 1.459,-16.992 -1.32,-22.127 -0.95299,12.849 -1.907,29.151 -6.219,41.086" />
      <path
         style="fill:#ffffff;fill-opacity:1"
         id="path246"
         d="m 67.566,266.59 c 0.383,-0.087 -1.345,0.30402 0,0" />
    </g>
  </g>
  <g
     aria-label="Mi Tienda"
     transform="scale(0.91100012,1.0976947)"
     style="font-style:normal;font-variant:normal;font-weight:normal;font-stretch:normal;font-size:131.9523468px;line-height:1.25;font-family:'Times New Roman';-inkscape-font-specification:'Times New Roman, ';letter-spacing:0px;word-spacing:0px;fill:#ffffff;fill-opacity:1;stroke:none;stroke-width:1.37450361"
     id="text1085">
    <path
       d="m 64.623146,157.23296 -7.731582,17.33163 q -1.997326,4.38123 -3.221493,5.92755 -1.224168,1.48189 -2.706054,1.48189 -1.417457,0 -2.512765,-1.22417 -0.708728,-0.77316 -3.285922,-5.66983 -2.512765,-4.89667 -4.187941,-8.69803 l -8.504741,-19.13567 q -1.739606,-3.99465 -3.672502,-3.99465 -2.061755,0 -2.255045,3.41478 -0.451009,7.60273 -0.451009,14.04571 0,6.70071 0.644299,9.08461 0.451009,1.41746 1.159737,2.06176 0.773158,0.6443 4.059081,2.31947 2.126185,1.09531 2.126185,3.80136 0,7.21615 -18.491369,7.21615 Q 0,185.19552 0,178.17266 q 0,-1.80403 0.77315827,-2.57719 0.83758813,-0.83759 4.18794073,-2.44833 2.1261852,-0.96645 2.8349137,-2.64163 0.7731583,-1.67518 1.2885971,-6.50741 0.5798687,-5.15439 1.0953072,-16.88063 0.515439,-11.79066 0.515439,-20.16654 0,-10.50207 -1.6107462,-14.239 -0.5798687,-1.2886 -1.353027,-1.9329 -0.7087284,-0.64429 -2.7704838,-1.67517 -4.57451987,-2.19062 -4.57451987,-5.66983 0,-2.25504 1.67517627,-4.123511 1.7396061,-1.868465 4.5745198,-2.641624 2.8349137,-0.837588 7.5382928,-1.417457 4.76781,-0.644298 8.053733,-0.644298 8.247021,0 11.661804,1.353027 1.675176,0.644298 2.641624,1.739606 0.966448,1.095308 2.770484,4.510087 l 13.40141,24.67664 q 2.190615,4.05908 3.028203,4.9611 0.837588,0.90202 2.319475,0.90202 1.288597,0 2.255045,-0.96645 1.030878,-0.96645 2.383905,-3.60807 l 9.08461,-17.71822 q 1.675176,-3.41478 2.190615,-4.44566 3.157063,-6.442981 6.249696,-8.569166 3.930221,-2.770484 14.303428,-2.770484 18.23365,0 18.23365,8.31145 0,1.86847 -0.70873,3.0282 -0.70873,1.09531 -2.89934,2.70606 -2.96378,2.25504 -3.73693,6.50741 -1.48189,8.89132 -1.48189,21.64844 0,16.42961 1.54632,28.80014 0.38657,3.02821 1.15973,4.12351 0.83759,1.09531 4.18794,3.28593 2.31948,1.54631 2.31948,4.12351 0,4.51009 -5.99198,6.37855 -3.09263,1.03088 -6.50741,1.35303 -3.414786,0.32215 -10.50207,0.32215 -10.888646,0 -16.236324,-1.54632 -5.927547,-1.7396 -5.927547,-5.92755 0,-1.54631 0.773158,-2.51276 0.773159,-1.03088 3.994651,-3.6725 1.675177,-1.35303 2.255045,-5.21882 0.644299,-3.86579 0.644299,-13.14369 0,-5.15439 -0.515439,-6.76514 -0.451009,-1.61074 -1.997325,-1.61074 -1.804036,0 -3.479213,2.51276 -1.675176,2.44834 -5.025529,9.85777 z"
       style="font-style:normal;font-variant:normal;font-weight:normal;font-stretch:normal;font-family:'Cooper Black';-inkscape-font-specification:'Cooper Black, ';stroke-width:1.37450361;fill:#ffffff;fill-opacity:1"
       id="path137" />
    <path
       d="m 153.27863,124.18044 v 37.43375 q 0,4.44566 0.77316,6.50742 0.83759,2.06175 3.28592,3.80136 1.99733,1.41745 2.64163,2.44833 0.70872,0.96645 0.70872,2.51277 0,8.31145 -21.06856,8.31145 -11.33965,0 -17.97593,-1.80404 -2.25504,-0.6443 -3.6725,-2.25504 -1.35303,-1.61075 -1.35303,-3.6725 0,-1.73961 0.70873,-2.70606 0.70873,-0.96645 3.60807,-3.09263 1.99733,-1.48189 2.83492,-4.83224 0.83758,-3.35035 0.83758,-9.98663 0,-2.12618 -0.32214,-7.92487 -0.25772,-5.86312 -0.38658,-6.82957 -0.38658,-2.64162 -3.60808,-4.05908 -3.99465,-1.7396 -3.99465,-5.15439 0,-4.05908 5.21882,-6.0564 7.21615,-2.77049 15.46317,-4.70338 8.24702,-1.9329 12.75711,-1.9329 3.54364,0 3.54364,3.99465 z M 140.52152,95.960167 q 5.6054,0 8.89132,2.126185 3.28592,2.061758 3.28592,5.605398 0,4.9611 -4.9611,7.86044 -7.86044,4.57452 -19.0068,4.57452 -4.70338,0 -7.47387,-1.80403 -3.73693,-2.31948 -3.73693,-6.44299 0,-5.54097 7.92487,-8.69803 8.05374,-3.221493 15.07659,-3.221493 z"
       style="font-style:normal;font-variant:normal;font-weight:normal;font-stretch:normal;font-family:'Cooper Black';-inkscape-font-specification:'Cooper Black, ';stroke-width:1.37450361;fill:#ffffff;fill-opacity:1"
       id="path139" />
    <path
       d="m 225.24678,95.960167 h 33.95454 q 5.47653,-0.19329 9.98662,-1.481887 1.9329,-0.515439 3.41479,-0.515439 5.21881,0 10.11548,7.731579 4.9611,7.73159 4.9611,15.91418 0,5.6054 -3.41478,8.18259 -2.57719,1.9329 -6.18527,1.9329 -3.41478,0 -5.92754,-1.86847 -2.51277,-1.9329 -4.9611,-6.31413 -2.12619,-3.99465 -3.35035,-5.21881 -1.22417,-1.22417 -2.96378,-1.22417 -2.3839,0 -3.41478,1.99732 -1.03088,1.99733 -1.03088,6.57185 v 36.08072 q 0,5.54097 1.15974,8.05373 1.15974,2.51277 4.38123,3.86579 3.47921,1.48189 4.70338,2.83492 1.2886,1.28859 1.2886,3.60807 0,4.63895 -6.31413,6.89399 -6.2497,2.25505 -19.26453,2.25505 -15.9786,0 -23.71018,-2.64163 -6.50742,-2.19061 -6.50742,-7.08728 0,-2.64162 2.31947,-4.12351 0.57987,-0.32215 4.57452,-1.54632 2.44834,-0.70873 3.35036,-2.70605 0.96645,-1.99733 1.54631,-7.66715 0.51544,-5.02553 0.96645,-16.23633 0.45101,-11.27522 0.45101,-19.52224 0,-5.79869 -0.90202,-8.24703 -0.90202,-2.44833 -2.96377,-2.44833 -2.51277,0 -4.89667,3.60807 -4.3168,6.57185 -7.08728,8.69803 -3.28593,2.51277 -6.37856,2.51277 -3.47921,0 -5.73426,-2.5772 -2.25504,-2.64162 -2.25504,-6.7007 0,-3.99465 1.80403,-8.76246 1.80404,-4.83224 4.83224,-8.89132 4.89667,-6.57185 9.66448,-6.57185 1.2886,0 2.96378,0.38658 3.47921,0.708728 5.66982,0.966447 2.25505,0.25772 5.15439,0.25772 z"
       style="font-style:normal;font-variant:normal;font-weight:normal;font-stretch:normal;font-family:'Cooper Black';-inkscape-font-specification:'Cooper Black, ';stroke-width:1.37450361;fill:#ffffff;fill-opacity:1"
       id="path141" />
    <path
       d="m 326.53051,124.18044 v 37.43375 q 0,4.44566 0.77316,6.50742 0.83758,2.06175 3.28592,3.80136 1.99732,1.41745 2.64162,2.44833 0.70873,0.96645 0.70873,2.51277 0,8.31145 -21.06856,8.31145 -11.33966,0 -17.97593,-1.80404 -2.25505,-0.6443 -3.6725,-2.25504 -1.35303,-1.61075 -1.35303,-3.6725 0,-1.73961 0.70873,-2.70606 0.70873,-0.96645 3.60807,-3.09263 1.99733,-1.48189 2.83491,-4.83224 0.83759,-3.35035 0.83759,-9.98663 0,-2.12618 -0.32215,-7.92487 -0.25772,-5.86312 -0.38658,-6.82957 -0.38658,-2.64162 -3.60807,-4.05908 -3.99465,-1.7396 -3.99465,-5.15439 0,-4.05908 5.21882,-6.0564 7.21614,-2.77049 15.46316,-4.70338 8.24703,-1.9329 12.75712,-1.9329 3.54364,0 3.54364,3.99465 z M 313.7734,95.960167 q 5.60539,0 8.89132,2.126185 3.28592,2.061758 3.28592,5.605398 0,4.9611 -4.9611,7.86044 -7.86044,4.57452 -19.00681,4.57452 -4.70338,0 -7.47386,-1.80403 -3.73693,-2.31948 -3.73693,-6.44299 0,-5.54097 7.92487,-8.69803 8.05373,-3.221493 15.07659,-3.221493 z"
       style="font-style:normal;font-variant:normal;font-weight:normal;font-stretch:normal;font-family:'Cooper Black';-inkscape-font-specification:'Cooper Black, ';stroke-width:1.37450361;fill:#ffffff;fill-opacity:1"
       id="path143" />
    <path
       d="M 397.33893,155.04235 H 367.0569 q -1.99733,0 -1.99733,1.7396 0,4.18794 4.51009,7.92487 4.57452,3.67251 9.79334,3.67251 3.09263,0 6.82957,-1.15974 3.80136,-1.22417 6.24969,-2.96377 2.19062,-1.54632 3.47921,-1.54632 1.67518,0 3.28593,2.06175 1.61074,2.06176 1.61074,4.25237 0,4.63895 -5.79868,8.95575 -10.24435,7.66716 -23.64576,7.66716 -13.53027,0 -22.67931,-7.86045 -4.44566,-3.86579 -7.345,-9.34232 -3.80137,-7.28058 -3.80137,-15.33431 0,-10.82422 6.57185,-19.45782 5.66983,-7.47386 14.43229,-11.14636 6.57184,-2.77049 14.239,-2.77049 12.24167,0 20.81084,6.95843 4.3168,3.47921 6.95842,8.24702 3.02821,5.41211 3.02821,10.5665 0,4.18794 -1.73961,6.89399 -1.7396,2.64163 -4.51009,2.64163 z m -28.60685,-12.04839 h 6.50741 q 4.12351,0 4.12351,-3.80136 0,-3.47921 -1.99732,-5.66983 -1.99733,-2.19061 -5.21882,-2.19061 -3.60807,0 -5.66983,2.83491 -1.9329,2.64163 -1.9329,5.34768 0,1.9329 0.90202,2.70605 0.96645,0.77316 3.28593,0.77316 z"
       style="font-style:normal;font-variant:normal;font-weight:normal;font-stretch:normal;font-family:'Cooper Black';-inkscape-font-specification:'Cooper Black, ';stroke-width:1.37450361;fill:#ffffff;fill-opacity:1"
       id="path145" />
    <path
       d="m 486.05883,143.5094 0.90202,22.67931 q 0.12886,2.5772 0.77316,3.80136 0.70873,1.22417 3.99465,4.70338 0.96645,1.03088 0.96645,2.89935 0,4.25237 -5.08996,5.92754 -5.08996,1.67518 -18.16922,1.67518 -8.89132,0 -12.56382,-1.54632 -3.80137,-1.61074 -3.80137,-5.21882 0,-1.28859 0.38658,-1.86846 0.38658,-0.6443 2.5772,-3.02821 2.57719,-2.70605 2.57719,-18.04036 0,-8.89132 -2.06175,-13.14369 -1.67518,-3.41478 -6.18527,-3.41478 -4.3168,0 -5.92755,2.77049 -1.61074,2.77048 -1.61074,10.05105 v 12.75711 q 0,3.80137 0.45101,5.21882 0.51543,1.41746 3.22149,5.47654 0.70873,1.15974 0.70873,2.64162 0,3.80137 -5.28325,5.6054 -5.28325,1.80404 -16.49404,1.80404 -17.9115,0 -17.9115,-7.40944 0,-1.54631 0.51543,-2.31947 0.57987,-0.83759 2.64163,-2.31947 1.67517,-1.22417 2.12618,-2.77049 0.45101,-1.61075 0.83759,-7.79601 0.45101,-7.34501 0.45101,-15.39874 0,-4.44566 -0.70873,-5.79868 -0.6443,-1.41746 -3.86579,-3.41479 -2.77048,-1.7396 -2.77048,-4.25237 0,-2.57719 2.25504,-4.18794 2.25505,-1.67517 9.2779,-4.18794 6.18527,-2.19061 11.91952,-3.6725 5.73426,-1.54632 7.86045,-1.54632 1.93289,0 3.22149,1.41746 1.35303,1.41746 1.35303,3.35035 0,0.19329 -0.0644,1.61075 -0.0644,0.51544 -0.0644,0.90202 0,3.09263 2.57719,3.09263 1.54632,0 3.28592,-2.44833 5.54097,-7.98931 16.10747,-7.98931 8.11816,0 13.91685,4.25237 4.05908,3.02821 5.66982,7.15172 1.61075,4.05908 1.99733,11.98395 z"
       style="font-style:normal;font-variant:normal;font-weight:normal;font-stretch:normal;font-family:'Cooper Black';-inkscape-font-specification:'Cooper Black, ';stroke-width:1.37450361;fill:#ffffff;fill-opacity:1"
       id="path147" />
    <path
       d="m 571.8794,101.11456 v 58.82445 q 0,5.02553 0.38658,6.44299 0.45101,1.41746 2.38391,2.77048 2.31947,1.61075 3.09263,2.83492 0.83759,1.22417 0.83759,2.96377 0,5.15439 -10.37321,7.86044 -9.34233,2.38391 -18.68466,2.38391 -2.06175,0 -2.70605,-0.6443 -0.57987,-0.57987 -0.77316,-2.89934 -0.32215,-3.28593 -2.31947,-3.28593 -1.09531,0 -3.41479,1.9329 -6.57184,5.34768 -14.62557,5.34768 -9.98663,0 -17.97593,-7.40944 -4.70338,-4.44566 -7.60273,-10.24434 -3.86579,-7.5383 -3.86579,-15.26988 0,-9.08461 5.02553,-17.52492 4.63895,-7.79601 12.62825,-11.98395 6.70071,-3.47922 13.20812,-3.47922 7.47387,0 13.40141,3.35036 0.96645,0.51544 1.54632,0.51544 2.06176,0 2.06176,-5.54097 0,-2.38391 -1.15974,-3.60807 -1.09531,-1.2886 -3.99465,-2.19062 -4.05908,-1.2886 -4.05908,-4.51009 0,-4.70338 9.34233,-7.345 16.49404,-4.574523 22.09944,-4.574523 5.54096,0 5.54096,5.283253 z m -34.98541,32.40821 q -4.18794,0 -6.63627,4.44566 -3.28593,5.92755 -3.28593,15.59203 0,8.76246 3.15707,13.20812 2.25504,3.22149 6.12083,3.22149 4.18794,0 6.05641,-4.83224 1.9329,-4.89667 1.9329,-15.72088 0,-9.9222 -2.25505,-13.20812 -1.73961,-2.5772 -5.08996,-2.70606 z"
       style="font-style:normal;font-variant:normal;font-weight:normal;font-stretch:normal;font-family:'Cooper Black';-inkscape-font-specification:'Cooper Black, ';stroke-width:1.37450361;fill:#ffffff;fill-opacity:1"
       id="path149" />
    <path
       d="m 619.17091,119.67035 q 11.21079,0 19.0068,5.66983 4.12351,3.0282 5.73426,6.95843 1.67518,3.86579 1.67518,10.69535 l -0.12886,9.60005 q 0,9.98663 1.41745,12.9504 0.70873,1.41746 1.35303,1.80404 0.6443,0.38658 2.70606,0.70873 2.06175,0.32215 2.06175,2.70605 0,3.09263 -2.51276,6.44299 -2.44834,3.35035 -6.37856,5.60539 -4.83224,2.83492 -10.11549,2.83492 -6.76513,0 -10.69535,-4.63895 -1.35303,-1.67518 -2.51277,-1.67518 -1.28859,0 -3.41478,1.61075 -6.44299,4.70338 -14.62558,4.70338 -8.44031,0 -13.65913,-3.60807 -3.41478,-2.38391 -5.4121,-6.18527 -1.99733,-3.86579 -1.99733,-8.05373 0,-6.70071 5.41211,-11.8551 8.44031,-8.11816 25.2565,-8.18259 3.73693,0 4.70338,-0.70873 0.96645,-0.77316 0.96645,-3.47921 0,-6.82956 -1.41746,-9.85777 -1.41745,-3.09263 -4.63895,-3.09263 -1.93289,0 -3.47921,1.15974 -1.48189,1.15973 -3.73693,4.25237 -5.73426,8.18259 -11.98396,8.18259 -3.15706,0 -5.15438,-1.86847 -1.99733,-1.86846 -1.99733,-4.89667 0,-3.09263 2.44834,-6.18526 2.51276,-3.09263 6.76513,-5.41211 11.6618,-6.18527 24.35449,-6.18527 z m -4.3168,37.30489 q -2.83492,0 -4.9611,2.31948 -2.06176,2.31947 -2.06176,5.54096 0,3.09264 1.48189,5.02553 1.48188,1.86847 3.93022,1.86847 5.15439,0 5.15439,-8.69803 0,-3.54364 -0.77316,-4.76781 -0.70873,-1.22417 -2.77048,-1.2886 z"
       style="font-style:normal;font-variant:normal;font-weight:normal;font-stretch:normal;font-family:'Cooper Black';-inkscape-font-specification:'Cooper Black, ';stroke-width:1.37450361;fill:#ffffff;fill-opacity:1"
       id="path151" />
  </g>
  <g
     aria-label="En lnea"
     style="font-style:normal;font-variant:normal;font-weight:bold;font-stretch:normal;font-size:64.97705841px;line-height:1.25;font-family:'Bookman Old Style';-inkscape-font-specification:'Bookman Old Style Bold';letter-spacing:0px;word-spacing:0px;fill:#ffffff;fill-opacity:1;stroke:none;stroke-width:0.67684436"
     id="text1091">
    <path
       d="m 318.73725,228.89148 h 36.93033 l 5.0446,13.99164 -5.7426,2.06226 q -1.45945,-3.42652 -3.42653,-5.52051 -1.93535,-2.09399 -4.31488,-2.76025 -2.3478,-0.698 -5.48878,-0.698 h -6.75787 v 11.04102 h 2.2209 q 2.50643,0 3.36307,-0.34899 0.88835,-0.38073 1.26908,-1.14218 0.38072,-0.79318 0.38072,-3.10925 v -1.68154 h 5.64742 v 18.71898 h -5.64742 v -1.90363 q 0,-1.93535 -0.4759,-2.82371 -0.44418,-0.88835 -1.23736,-1.20563 -0.79318,-0.31727 -3.5217,-0.31727 h -1.99881 v 10.15267 q 0,1.61808 0.15863,1.96708 0.15864,0.349 0.60282,0.53936 0.47591,0.19036 1.99881,0.19036 h 3.71206 q 4.15625,0 7.01169,-1.1739 2.85544,-1.20563 5.07633,-3.83898 2.25262,-2.66507 3.45825,-6.31369 l 5.80606,1.99881 -5.80606,16.43463 h -38.26286 v -6.12333 h 1.11045 q 2.2209,0 2.98235,-0.31727 0.76145,-0.31727 1.07872,-1.11045 0.15863,-0.4759 0.15863,-2.6968 v -24.11258 q 0,-1.96708 -0.28554,-2.56989 -0.25382,-0.60282 -0.8249,-0.88836 -0.57109,-0.31727 -2.25263,-0.31727 h -1.96708 z"
       style="font-style:normal;font-variant:normal;font-weight:bold;font-stretch:normal;font-family:'Bookman Old Style';-inkscape-font-specification:'Bookman Old Style Bold';stroke-width:0.67684436;fill:#ffffff;fill-opacity:1"
       id="path144" />
    <path
       d="m 379.62152,240.72568 v 4.2197 q 3.58516,-2.44298 6.12333,-3.33134 2.56989,-0.88836 5.23497,-0.88836 3.07752,0 5.42533,1.30081 2.37953,1.30081 3.45825,3.26789 1.07872,1.93535 1.07872,5.52051 v 13.19847 q 0,1.68153 0.22209,2.15744 0.25381,0.47591 0.76145,0.698 0.38072,0.15863 2.28435,0.15863 h 1.55462 v 6.12333 h -18.62379 v -6.12333 q 2.12571,-0.0317 2.37953,-0.0952 0.79318,-0.22209 1.04699,-0.72972 0.25382,-0.50764 0.25382,-2.18917 v -11.64384 q 0,-2.25262 -0.47591,-2.91889 -0.76145,-1.11045 -2.41125,-1.11045 -1.36427,0 -2.9189,0.60282 -1.55462,0.60281 -4.18797,2.47471 v 12.59565 q 0,2.06226 0.44418,2.53816 0.44418,0.47591 2.12571,0.47591 h 1.01527 v 6.12333 h -18.43343 v -6.12333 h 0.92008 q 2.18917,0 2.6968,-0.19036 0.53936,-0.19036 0.79318,-0.66627 0.28554,-0.47591 0.28554,-1.8719 v -14.78482 h -4.6956 v -6.12332 q 5.71087,-0.698 10.69202,-2.66508 z"
       style="font-style:normal;font-variant:normal;font-weight:bold;font-stretch:normal;font-family:'Bookman Old Style';-inkscape-font-specification:'Bookman Old Style Bold';stroke-width:0.67684436;fill:#ffffff;fill-opacity:1"
       id="path153" />
    <path
       d="m 445.96284,226.5754 v 37.12069 q 0,1.87189 0.15864,2.22089 0.22209,0.63454 0.98354,0.92009 0.4759,0.19036 2.56989,0.19036 h 1.11045 v 6.12333 H 431.1463 v -6.12333 h 1.20563 q 1.90362,0 2.44298,-0.22209 0.53936,-0.25382 0.79318,-0.76145 0.25381,-0.53936 0.25381,-2.3478 v -28.30056 h -4.6956 v -6.15505 q 5.67914,-0.38073 11.73902,-2.66508 z"
       style="font-style:normal;font-variant:normal;font-weight:bold;font-stretch:normal;font-family:'Bookman Old Style';-inkscape-font-specification:'Bookman Old Style Bold';stroke-width:0.67684436;fill:#ffffff;fill-opacity:1"
       id="path155" />
    <path
       d="m 468.74288,240.72568 v 23.44631 q 0,1.68154 0.19036,2.06226 0.19036,0.38073 0.66627,0.60282 0.50763,0.19036 2.22089,0.19036 h 1.71327 v 6.12333 h -19.60734 v -6.12333 h 1.68154 q 1.6498,0 2.09398,-0.15863 0.47591,-0.19037 0.698,-0.60282 0.22209,-0.41245 0.22209,-1.64981 v -15.13381 h -4.69561 v -5.9647 q 2.50644,-0.1269 4.79079,-0.53936 2.31608,-0.41245 4.12452,-0.98354 1.1739,-0.38072 2.88716,-1.26908 z m -12.75429,-3.42652 -1.26908,-3.20444 6.82132,-6.0916 q 2.95062,-2.60162 5.42533,-2.60162 1.90362,0 3.23616,1.36427 1.33254,1.36426 1.33254,3.39479 0,1.49118 -1.14218,2.88717 -1.14217,1.39599 -4.02933,2.03053 z"
       style="font-style:normal;font-variant:normal;font-weight:bold;font-stretch:normal;font-family:'Bookman Old Style';-inkscape-font-specification:'Bookman Old Style Bold';stroke-width:0.67684436;fill:#ffffff;fill-opacity:1"
       id="path157" />
    <path
       d="m 491.30083,240.72568 v 4.2197 q 3.58516,-2.44298 6.12333,-3.33134 2.56989,-0.88836 5.23497,-0.88836 3.07753,0 5.42533,1.30081 2.37953,1.30081 3.45825,3.26789 1.07872,1.93535 1.07872,5.52051 v 13.19847 q 0,1.68153 0.22209,2.15744 0.25382,0.47591 0.76145,0.698 0.38073,0.15863 2.28435,0.15863 h 1.55463 v 6.12333 h -18.6238 v -6.12333 q 2.12572,-0.0317 2.37953,-0.0952 0.79318,-0.22209 1.047,-0.72972 0.25381,-0.50764 0.25381,-2.18917 v -11.64384 q 0,-2.25262 -0.4759,-2.91889 -0.76145,-1.11045 -2.41126,-1.11045 -1.36426,0 -2.91889,0.60282 -1.55463,0.60281 -4.18798,2.47471 v 12.59565 q 0,2.06226 0.44418,2.53816 0.44418,0.47591 2.12572,0.47591 h 1.01526 v 6.12333 h -18.43343 v -6.12333 h 0.92009 q 2.18916,0 2.6968,-0.19036 0.53936,-0.19036 0.79317,-0.66627 0.28555,-0.47591 0.28555,-1.8719 v -14.78482 h -4.69561 v -6.12332 q 5.71088,-0.698 10.69203,-2.66508 z"
       style="font-style:normal;font-variant:normal;font-weight:bold;font-stretch:normal;font-family:'Bookman Old Style';-inkscape-font-specification:'Bookman Old Style Bold';stroke-width:0.67684436;fill:#ffffff;fill-opacity:1"
       id="path159" />
    <path
       d="m 550.05938,261.41174 4.34661,4.37833 q -3.74379,4.28316 -7.64622,6.21851 -3.87071,1.90363 -8.37595,1.90363 -7.23377,0 -12.1832,-4.88597 -4.94942,-4.9177 -4.94942,-11.86593 0,-4.5687 2.22089,-8.34422 2.2209,-3.80725 6.15506,-5.93297 3.93415,-2.15744 8.9153,-2.15744 3.17271,0 5.77433,0.92009 2.60162,0.92008 4.53698,2.63334 1.96707,1.71327 3.14098,4.15625 1.20563,2.41126 1.6498,5.01288 0.19037,1.30081 0.19037,4.12452 h -21.35233 q 0.0635,4.02934 2.34781,6.53578 2.31607,2.47471 5.64742,2.47471 2.12571,0 4.63215,-1.26908 2.50644,-1.30081 4.94942,-3.90243 z m -6.34541,-9.16913 q -0.22209,-1.90362 -0.92009,-2.98234 -0.66627,-1.11045 -1.84017,-1.74499 -1.14217,-0.66627 -2.41126,-0.66627 -1.33253,0 -2.56989,0.66627 -1.23735,0.66627 -1.9988,1.80844 -0.72973,1.14218 -0.95182,2.91889 z"
       style="font-style:normal;font-variant:normal;font-weight:bold;font-stretch:normal;font-family:'Bookman Old Style';-inkscape-font-specification:'Bookman Old Style Bold';stroke-width:0.67684436;fill:#ffffff;fill-opacity:1"
       id="path161" />
    <path
       d="m 578.23303,253.95587 v -2.3478 q 0,-2.09399 -0.34899,-2.88716 -0.349,-0.79318 -1.26909,-1.30081 -0.92008,-0.53936 -2.28435,-0.53936 -1.04699,0 -1.90362,0.34899 -0.85663,0.349 -1.36427,0.88836 -0.50763,0.53936 -1.1739,2.09399 -0.85663,1.96708 -2.06226,2.82371 -1.1739,0.85663 -2.79198,0.85663 -2.03053,0 -3.33135,-1.26908 -1.30081,-1.26909 -1.30081,-3.14098 0,-2.12572 1.33254,-3.77553 1.77672,-2.18917 5.29842,-3.58516 3.52171,-1.39599 7.93177,-1.39599 4.41007,0 7.48759,1.42772 3.10926,1.42772 4.31489,3.42652 1.23735,1.96708 1.23735,6.02815 v 11.35829 q 0,2.09399 0.22209,2.69681 0.22209,0.57108 0.95182,1.01526 0.72972,0.44418 1.61808,0.44418 0.88835,0 2.37953,-0.50763 v 6.18678 q -2.6968,0.85663 -5.17152,0.85663 -2.91889,0 -4.98115,-0.95181 -2.06226,-0.95181 -3.45825,-2.85544 -3.17271,2.06226 -5.77433,2.95062 -2.56989,0.85663 -4.98115,0.85663 -4.53697,0 -7.32895,-2.53817 -2.79199,-2.56989 -2.79199,-6.31369 0,-2.12571 0.95181,-3.90243 0.98354,-1.77671 2.88717,-3.10925 1.93535,-1.33254 5.93296,-2.3478 4.02934,-1.047 9.77194,-1.49118 z m 0,5.2667 q -4.15624,0.60281 -5.86951,1.23736 -1.71326,0.60281 -2.44298,1.55462 -0.72972,0.92009 -0.72972,1.90363 0,1.26908 0.95181,2.12571 0.95181,0.85663 2.56989,0.85663 1.04699,0 2.41126,-0.53936 1.39599,-0.53936 3.10925,-1.58635 z"
       style="font-style:normal;font-variant:normal;font-weight:bold;font-stretch:normal;font-family:'Bookman Old Style';-inkscape-font-specification:'Bookman Old Style Bold';stroke-width:0.67684436;fill:#ffffff;fill-opacity:1"
       id="path163" />
  </g>
</svg>
