<?xml version="1.0" encoding="UTF-8" standalone="no"?>
<!-- Generator: Adobe Illustrator 19.0.1, SVG Export Plug-In . SVG Version: 6.00 Build 0)  -->

<svg
   xmlns:dc="http://purl.org/dc/elements/1.1/"
   xmlns:cc="http://creativecommons.org/ns#"
   xmlns:rdf="http://www.w3.org/1999/02/22-rdf-syntax-ns#"
   xmlns:svg="http://www.w3.org/2000/svg"
   xmlns="http://www.w3.org/2000/svg"
   xmlns:sodipodi="http://sodipodi.sourceforge.net/DTD/sodipodi-0.dtd"
   xmlns:inkscape="http://www.inkscape.org/namespaces/inkscape"
   version="1.1"
   id="Layer_1"
   x="0px"
   y="0px"
   width="1209.5533"
   height="1467.1725"
   viewBox="0 0 1209.5533 1467.1725"
   enable-background="new 0 0 768 2302.8"
   xml:space="preserve"
   sodipodi:docname="regalo.svg"
   inkscape:version="0.92.4 (5da689c313, 2019-01-14)"
   inkscape:export-filename="D:\Proyectos\3 Diseño Web\1 Diseños demo\2 Tienda\img\regalo.png"
   inkscape:export-xdpi="31.677601"
   inkscape:export-ydpi="31.677601"><metadata
   id="metadata2361"><rdf:RDF><cc:Work
       rdf:about=""><dc:format>image/svg+xml</dc:format><dc:type
         rdf:resource="http://purl.org/dc/dcmitype/StillImage" /><dc:title /></cc:Work></rdf:RDF></metadata><defs
   id="defs2359" /><sodipodi:namedview
   pagecolor="#ffffff"
   bordercolor="#666666"
   borderopacity="1"
   objecttolerance="10"
   gridtolerance="10"
   guidetolerance="10"
   inkscape:pageopacity="0"
   inkscape:pageshadow="2"
   inkscape:window-width="1366"
   inkscape:window-height="705"
   id="namedview2357"
   showgrid="false"
   fit-margin-top="0"
   fit-margin-left="0"
   fit-margin-right="0"
   fit-margin-bottom="0"
   inkscape:zoom="0.03623354"
   inkscape:cx="-5012.6238"
   inkscape:cy="4105.8214"
   inkscape:window-x="-8"
   inkscape:window-y="-8"
   inkscape:window-maximized="1"
   inkscape:current-layer="Layer_1" />




































































<g
   id="g1076"
   transform="matrix(57.420063,0,0,57.420063,-13728.494,-62929.451)">
	<path
   d="m 138.1,945.2 -0.8,-0.5 c 0.1,0.3 0.1,0.6 0,1 0,0 0.8,-0.5 0.8,-0.5 z"
   id="path1064"
   inkscape:connector-curvature="0"
   style="fill:#f05a28" />
	<path
   d="m 130.6,943.2 c 0.3,-0.9 1,-1.4 1.6,-1.5 l -1.7,-1 -1.7,1 c 0.7,0 1.4,0.4 1.8,1.5 z"
   id="path1066"
   inkscape:connector-curvature="0"
   style="fill:#f05a28" />
	<path
   d="m 142,956.2 7.6,-4.4 -7.6,-4.4 -2.1,1.2 c 0.7,1.1 1,2.4 0.7,3.6 l -2.9,1.7 z"
   id="path1068"
   inkscape:connector-curvature="0"
   style="fill:#f05a28" />
	<path
   d="m 138.1,958.4 -4.9,-2.6 c -0.2,0 -0.4,0.1 -0.7,0.1 h -3.9 c -0.3,0 -0.6,-0.1 -0.9,-0.3 l -5,2.8 v 0 l 7.7,4.5 z"
   id="path1070"
   inkscape:connector-curvature="0"
   style="fill:#f05a28" />
	<path
   d="m 118.8,956.3 4.5,-2.5 -2.7,-1.6 c -0.5,-1.4 0.3,-3 0.5,-3.5 l -2.3,-1.4 -7.7,4.4 z"
   id="path1072"
   inkscape:connector-curvature="0"
   style="fill:#f05a28" />
	<path
   d="m 122.7,945.2 1.3,0.8 c -0.1,-0.7 -0.1,-1.1 0,-1.5 z"
   id="path1074"
   inkscape:connector-curvature="0"
   style="fill:#f05a28" />
</g>
<g
   id="g1084"
   transform="matrix(57.420063,0,0,57.420063,-13728.494,-62929.451)">
	<polygon
   points="122.7,945.2 124,946 122.7,945.2 118.8,947.4 118.9,947.4 "
   id="polygon1078"
   style="fill:#569080" />
	<polygon
   points="121.2,948.7 118.9,947.4 118.8,947.4 "
   id="polygon1080"
   style="fill:#569080" />
	<path
   d="m 140.5,952.2 c 0.4,-1.2 0,-2.6 -0.7,-3.6 l 2.1,-1.2 -3.8,-2.2 c 0,0 -0.8,0.5 -0.8,0.5 0.1,-1 -0.2,-1.8 -0.9,-2.1 l -3.3,-1.7 c -0.8,-0.4 -2,-0.1 -2.5,1.3 -0.5,-1.4 -1.7,-1.7 -2.5,-1.3 -0.2,0.1 -2.6,1.3 -3.2,1.7 -0.8,0.5 -1.3,1 -1,2.5 l -1.3,-0.8 -3.8,2.2 2.3,1.4 v 0 c -0.3,0.5 -1,2 -0.5,3.5 l 2.7,1.6 -4.5,2.5 V 981 l 3.9,2.3 v -24.6 l 5,-2.8 c 0.3,0.2 0.6,0.3 0.9,0.3 h 3.9 c 0.3,0 0.5,0 0.7,-0.1 l 4.9,2.6 v 24.5 L 142,981 v -24.5 l -4.3,-2.3 z"
   id="path1082"
   inkscape:connector-curvature="0"
   style="fill:#569080" />
</g>
<g
   id="g1090"
   transform="matrix(57.420063,0,0,57.420063,-13728.494,-62929.451)">
	<polygon
   points="111.1,951.8 111.1,976.3 118.8,980.8 118.8,956.3 "
   id="polygon1086"
   style="fill:#ff7344" />
	<polygon
   points="122.7,983.1 130.4,987.4 130.4,962.9 122.7,958.5 "
   id="polygon1088"
   style="fill:#ff7344" />
</g>
<g
   id="g1096"
   transform="matrix(57.420063,0,0,57.420063,-13728.494,-62929.451)">
	<polygon
   points="130.4,987.4 138.1,982.9 138.1,958.4 130.4,962.9 "
   id="polygon1092"
   style="fill:#be1e2d" />
	<polygon
   points="142,980.7 149.6,976.3 149.6,951.8 142,956.2 "
   id="polygon1094"
   style="fill:#be1e2d" />
</g>
<g
   id="g1102"
   transform="matrix(57.420063,0,0,57.420063,-13728.494,-62929.451)">
	<path
   d="m 137.7,953.9 -0.8,0.5 v 0 c 1.3,-1.4 -0.4,-5.3 -2.6,-5.9 0,0 0,0 0,0 0.8,-0.6 1.8,-1.1 2.6,-1.4 1,-2.4 0.1,-3.6 -1.1,-3.6 0,0 0,0 0,0 -2.1,0.2 -3.6,3.8 -4.4,5.8 0,0 0,0 0,0 h 1.2 c 1.1,0 1.9,0.9 1.9,1.9 0,0.6 0.1,2.4 0,3 -0.1,0.7 -0.5,1.4 -1.2,1.6 l 4.9,2.6 v 24.5 l 3.9,-2.2 v -24.5 z"
   id="path1098"
   inkscape:connector-curvature="0"
   style="fill:#225b49" />
	<path
   d="m 125.5,943.5 c -0.1,0 -0.1,0 0,0 -1,-0.1 -1.9,1 -1.5,2.5 l -1.3,-0.8 -3.9,2.2 2.4,1.4 c 0.5,-0.8 1.1,-1.5 1.8,-1.9 0.8,-0.4 3.3,1 4,1.5 -1.6,0.5 -3.1,2.7 -3.1,4.6 0,1.5 1,2.3 2.9,1.2 -0.1,-0.6 0,-2.4 0,-3 0,-1.1 0.9,-1.9 1.9,-1.9 h 1.2 c -0.8,-1.9 -2.4,-5.6 -4.4,-5.8 z"
   id="path1100"
   inkscape:connector-curvature="0"
   style="fill:#225b49" />
</g>




















































































</svg>